{
  "accessors": [
    {
      "bufferView": 2,
      "componentType": 5126,
      "count": 12131,
      "max": [
        0.9548221230506897,
        0.8962613344192505,
        0.9441730380058289
      ],
      "min": [
        -0.9564999341964722,
        -0.8919391632080078,
        -0.9341237545013428
      ],
      "type": "VEC3"
    },
    {
      "bufferView": 2,
      "byteOffset": 145572,
      "componentType": 5126,
      "count": 12131,
      "max": [
        0.9995442032814026,
        1.0,
        0.9993160963058472
      ],
      "min": [
        -0.99736088514328,
        -0.9999862909317017,
        -0.9991211891174316
      ],
      "type": "VEC3"
    },
    {
      "bufferView": 3,
      "componentType": 5126,
      "count": 12131,
      "max": [
        0.9999974370002747,
        0.9977371692657471,
        0.9999508261680603,
        1.0
      ],
      "min": [
        -0.9999907612800598,
        -0.9998656511306763,
        -0.9998566508293152,
        -1.0
      ],
      "type": "VEC4"
    },
    {
      "bufferView": 1,
      "componentType": 5126,
      "count": 12131,
      "max": [
        0.9979570508003235,
        0.9979571104049683
      ],
      "min": [
        0.00204281834885478,
        0.009855508804321289
      ],
      "type": "VEC2"
    },
    {
      "bufferView": 1,
      "byteOffset": 97048,
      "componentType": 5126,
      "count": 12131,
      "max": [
        0.9979570508003235,
        0.9979571104049683
      ],
      "min": [
        0.00204281834885478,
        0.009855508804321289
      ],
      "type": "VEC2"
    },
    {
      "bufferView": 1,
      "byteOffset": 194096,
      "componentType": 5126,
      "count": 12131,
      "max": [
        0.9979570508003235,
        0.9979571104049683
      ],
      "min": [
        0.00204281834885478,
        0.009855508804321289
      ],
      "type": "VEC2"
    },
    {
      "bufferView": 1,
      "byteOffset": 291144,
      "componentType": 5126,
      "count": 12131,
      "max": [
        0.9979570508003235,
        0.9979571104049683
      ],
      "min": [
        0.00204281834885478,
        0.009855508804321289
      ],
      "type": "VEC2"
    },
    {
      "bufferView": 0,
      "componentType": 5125,
      "count": 29940,
      "type": "SCALAR"
    }
  ],
  "asset": {
    "extras": {
      "author": "vladlenfilimonov (https://sketchfab.com/vladlenfilimonov)",
      "license": "SKETCHFAB Standard (https://sketchfab.com/licenses)",
      "source": "https://sketchfab.com/3d-models/russula-brittlegill-mushroom-1fbf720380b64497a03174304ca1a70c",
      "title": "Russula (brittlegill) mushroom"
    },
    "generator": "Sketchfab-16.87.0",
    "version": "2.0"
  },
  "bufferViews": [
    {
      "buffer": 0,
      "byteLength": 119760,
      "name": "floatBufferViews",
      "target": 34963
    },
    {
      "buffer": 0,
      "byteLength": 388192,
      "byteOffset": 119760,
      "byteStride": 8,
      "name": "floatBufferViews",
      "target": 34962
    },
    {
      "buffer": 0,
      "byteLength": 291144,
      "byteOffset": 507952,
      "byteStride": 12,
      "name": "floatBufferViews",
      "target": 34962
    },
    {
      "buffer": 0,
      "byteLength": 194096,
      "byteOffset": 799096,
      "byteStride": 16,
      "name": "floatBufferViews",
      "target": 34962
    }
  ],
  "buffers": [
    {
      "byteLength": 993192,
      "uri": "scene.bin"
    }
  ],
  "extensionsUsed": [
    "KHR_materials_specular"
  ],
  "images": [
    {
      "uri": "textures/Material_0.007_baseColor.jpeg"
    },
    {
      "uri": "textures/Material_0.007_metallicRoughness.png"
    },
    {
      "uri": "textures/Material_0.007_normal.jpeg"
    }
  ],
  "materials": [
    {
      "doubleSided": true,
      "extensions": {
        "KHR_materials_specular": {
          "specularColorFactor": [
            1.0,
            1.0,
            1.0
          ],
          "specularFactor": 0.24228645268252244
        }
      },
      "name": "Material_0.007",
      "normalTexture": {
        "index": 2
      },
      "pbrMetallicRoughness": {
        "baseColorTexture": {
          "index": 0
        },
        "metallicFactor": 0.0,
        "metallicRoughnessTexture": {
          "index": 1
        }
      }
    }
  ],
  "meshes": [
    {
      "name": "Object_0",
      "primitives": [
        {
          "attributes": {
            "NORMAL": 1,
            "POSITION": 0,
            "TANGENT": 2,
            "TEXCOORD_0": 3,
            "TEXCOORD_1": 4,
            "TEXCOORD_2": 5,
            "TEXCOORD_3": 6
          },
          "indices": 7,
          "material": 0,
          "mode": 4
        }
      ]
    }
  ],
  "nodes": [
    {
      "children": [
        1
      ],
      "matrix": [
        1.0,
        0.0,
        0.0,
        0.0,
        0.0,
        2.220446049250313e-16,
        -1.0,
        0.0,
        0.0,
        1.0,
        2.220446049250313e-16,
        0.0,
        0.0,
        0.0,
        0.0,
        1.0
      ],
      "name": "Sketchfab_model"
    },
    {
      "children": [
        2
      ],
      "name": "root"
    },
    {
      "children": [
        3
      ],
      "matrix": [
        1.0,
        0.0,
        0.0,
        0.0,
        0.0,
        2.220446049250313e-16,
        1.0,
        0.0,
        0.0,
        -1.0,
        2.220446049250313e-16,
        0.0,
        0.0,
        0.0,
        0.0,
        1.0
      ],
      "name": "GLTF_SceneRootNode"
    },
    {
      "children": [
        4
      ],
      "name": "Mesh1.0_0"
    },
    {
      "mesh": 0,
      "name": "Object_4"
    }
  ],
  "samplers": [
    {
      "magFilter": 9729,
      "minFilter": 9987,
      "wrapS": 10497,
      "wrapT": 10497
    }
  ],
  "scene": 0,
  "scenes": [
    {
      "name": "Sketchfab_Scene",
      "nodes": [
        0
      ]
    }
  ],
  "textures": [
    {
      "sampler": 0,
      "source": 0
    },
    {
      "sampler": 0,
      "source": 1
    },
    {
      "sampler": 0,
      "source": 2
    }
  ]
}
