{"accessors" : [{"bufferView" : 0, "byteOffset" : 0, "componentType" : 5123, "count" : 36, "type" : "SCALAR", "max" : [23], "min" : [0]}, {"bufferView" : 1, "byteOffset" : 0, "componentType" : 5126, "count" : 24, "type" : "VEC3", "max" : [0.5, 0.5806693434715271, 0.5], "min" : [-0.5, -0.5, -0.5], "name" : "POSITION"}, {"bufferView" : 1, "byteOffset" : 12, "componentType" : 5126, "count" : 24, "type" : "VEC3", "max" : [1.0000044107437134, 1.0000044107437134, 1.0000044107437134], "min" : [-1.0000044107437134, -1.0000044107437134, -1.0000044107437134], "name" : "NORMAL"}, {"bufferView" : 1, "byteOffset" : 24, "componentType" : 5126, "count" : 24, "type" : "VEC2", "max" : [0.875, 1], "min" : [0.125, 0], "name" : "TEXCOORD_0"}, {"bufferView" : 0, "byteOffset" : 72, "componentType" : 5123, "count" : 2280, "type" : "SCALAR", "max" : [438], "min" : [0]}, {"bufferView" : 2, "byteOffset" : 0, "componentType" : 5126, "count" : 439, "type" : "VEC3", "max" : [1, 1, 1.0000001192092896], "min" : [-1.000000238418579, -1, -1.0000004768371582], "name" : "POSITION"}, {"bufferView" : 2, "byteOffset" : 12, "componentType" : 5126, "count" : 439, "type" : "VEC3", "max" : [1.0000044107437134, 1.0000044107437134, 1.0000042915344238], "min" : [-1.0000042915344238, -1.0000044107437134, -1.0000044107437134], "name" : "NORMAL"}, {"bufferView" : 2, "byteOffset" : 24, "componentType" : 5126, "count" : 439, "type" : "VEC2", "max" : [1.0000001192092896, 1], "min" : [0, 0], "name" : "TEXCOORD_0"}], "asset" : {"generator" : "Aspose.3D 25.11.0", "version" : "2.0"}, "buffers" : [{"uri" : "data:application/octet-stream;base64,", "byteLength" : 19460}], "bufferViews" : [{"buffer" : 0, "byteOffset" : 0, "byteLength" : 4632, "target" : 34963}, {"buffer" : 0, "byteOffset" : 4636, "byteLength" : 768, "byteStride" : 32, "target" : 34962}, {"buffer" : 0, "byteOffset" : 5408, "byteLength" : 14048, "byteStride" : 32, "target" : 34962}], "materials" : [{"name" : "openPBR_shader1", "pbrMetallicRoughness" : {"baseColorFactor" : [0, 0, 0, 1], "metallicFactor" : 1, "roughnessFactor" : 1}, "emissiveFactor" : [0, 0, 0], "alphaMode" : "OPAQUE", "doubleSided" : false}], "meshes" : [{"primitives" : [{"attributes" : {"POSITION" : 1, "NORMAL" : 2, "TEXCOORD_0" : 3}, "indices" : 0, "material" : 0, "mode" : 4}], "name" : ""}, {"primitives" : [{"attributes" : {"POSITION" : 5, "NORMAL" : 6, "TEXCOORD_0" : 7}, "indices" : 4, "material" : 0, "mode" : 4}], "name" : ""}], "nodes" : [{"matrix" : [4.135270302702416, 0, 0, 0, 0, 6.114054409976383, 0, 0, 0, 0, 0.14434212347845085, 0, 8.338192028424375, 2.1568886456561214, 0.36976221218079575, 1], "mesh" : 0, "name" : "pCube37"}, {"matrix" : [0.1491299276905447, 0, 0, 0, 0, 0.1491299276905447, 0, 0, 0, 0, 0.1491299276905447, 0, 9.878858251212284, 2.444692509452843, 0.5629942092691032, 1], "mesh" : 1, "name" : "pSphere1"}], "scene" : 0, "scenes" : [{"nodes" : [0, 1]}]}