{"accessors" : [{"bufferView" : 0, "byteOffset" : 0, "componentType" : 5123, "count" : 462, "type" : "SCALAR", "max" : [303], "min" : [0]}, {"bufferView" : 1, "byteOffset" : 0, "componentType" : 5126, "count" : 304, "type" : "VEC3", "max" : [0.4999997317790985, 0.8569656014442444, 4.994182586669922], "min" : [-0.4999997317790985, -0.5061996579170227, -16.986865997314453], "name" : "POSITION"}, {"bufferView" : 1, "byteOffset" : 12, "componentType" : 5126, "count" : 304, "type" : "VEC3", "max" : [1.0000044107437134, 1.0000044107437134, 1.0000044107437134], "min" : [-1.0000044107437134, -1.0000044107437134, -1.0000044107437134], "name" : "NORMAL"}, {"bufferView" : 1, "byteOffset" : 24, "componentType" : 5126, "count" : 304, "type" : "VEC2", "max" : [0.875, 1], "min" : [0.125, 0], "name" : "TEXCOORD_0"}, {"bufferView" : 0, "byteOffset" : 924, "componentType" : 5123, "count" : 36, "type" : "SCALAR", "max" : [23], "min" : [0]}, {"bufferView" : 2, "byteOffset" : 0, "componentType" : 5126, "count" : 24, "type" : "VEC3", "max" : [0.5, 0.5, 0.5], "min" : [-0.5, -0.5, -0.5], "name" : "POSITION"}, {"bufferView" : 2, "byteOffset" : 12, "componentType" : 5126, "count" : 24, "type" : "VEC3", "max" : [1.0000044107437134, 1.0000044107437134, 1.0000044107437134], "min" : [-1.0000044107437134, -1.0000044107437134, -1.0000044107437134], "name" : "NORMAL"}, {"bufferView" : 2, "byteOffset" : 24, "componentType" : 5126, "count" : 24, "type" : "VEC2", "max" : [0.875, 1], "min" : [0.125, 0], "name" : "TEXCOORD_0"}, {"bufferView" : 0, "byteOffset" : 996, "componentType" : 5123, "count" : 36, "type" : "SCALAR", "max" : [23], "min" : [0]}, {"bufferView" : 3, "byteOffset" : 0, "componentType" : 5126, "count" : 24, "type" : "VEC3", "max" : [0.5, 0.5, 0.5], "min" : [-0.5, -0.5, -0.5], "name" : "POSITION"}, {"bufferView" : 3, "byteOffset" : 12, "componentType" : 5126, "count" : 24, "type" : "VEC3", "max" : [1.0000044107437134, 1.0000044107437134, 1.0000044107437134], "min" : [-1.0000044107437134, -1.0000044107437134, -1.0000044107437134], "name" : "NORMAL"}, {"bufferView" : 3, "byteOffset" : 24, "componentType" : 5126, "count" : 24, "type" : "VEC2", "max" : [0.875, 1], "min" : [0.125, 0], "name" : "TEXCOORD_0"}, {"bufferView" : 0, "byteOffset" : 1068, "componentType" : 5123, "count" : 36, "type" : "SCALAR", "max" : [23], "min" : [0]}, {"bufferView" : 4, "byteOffset" : 0, "componentType" : 5126, "count" : 24, "type" : "VEC3", "max" : [0.5, 0.5, 0.5], "min" : [-0.5, -0.5, -0.5], "name" : "POSITION"}, {"bufferView" : 4, "byteOffset" : 12, "componentType" : 5126, "count" : 24, "type" : "VEC3", "max" : [1.0000044107437134, 1.0000044107437134, 1.0000044107437134], "min" : [-1.0000044107437134, -1.0000044107437134, -1.0000044107437134], "name" : "NORMAL"}, {"bufferView" : 4, "byteOffset" : 24, "componentType" : 5126, "count" : 24, "type" : "VEC2", "max" : [0.875, 1], "min" : [0.125, 0], "name" : "TEXCOORD_0"}, {"bufferView" : 0, "byteOffset" : 1140, "componentType" : 5123, "count" : 36, "type" : "SCALAR", "max" : [23], "min" : [0]}, {"bufferView" : 5, "byteOffset" : 0, "componentType" : 5126, "count" : 24, "type" : "VEC3", "max" : [0.5, 0.5, 0.5], "min" : [-0.5, -0.5, -0.5], "name" : "POSITION"}, {"bufferView" : 5, "byteOffset" : 12, "componentType" : 5126, "count" : 24, "type" : "VEC3", "max" : [1.0000044107437134, 1.0000044107437134, 1.0000044107437134], "min" : [-1.0000044107437134, -1.0000044107437134, -1.0000044107437134], "name" : "NORMAL"}, {"bufferView" : 5, "byteOffset" : 24, "componentType" : 5126, "count" : 24, "type" : "VEC2", "max" : [0.875, 1], "min" : [0.125, 0], "name" : "TEXCOORD_0"}, {"bufferView" : 0, "byteOffset" : 1212, "componentType" : 5123, "count" : 36, "type" : "SCALAR", "max" : [23], "min" : [0]}, {"bufferView" : 6, "byteOffset" : 0, "componentType" : 5126, "count" : 24, "type" : "VEC3", "max" : [0.5, 0.5, 0.5], "min" : [-0.5, -0.5, -0.5], "name" : "POSITION"}, {"bufferView" : 6, "byteOffset" : 12, "componentType" : 5126, "count" : 24, "type" : "VEC3", "max" : [1.0000044107437134, 1.0000044107437134, 1.0000044107437134], "min" : [-1.0000044107437134, -1.0000044107437134, -1.0000044107437134], "name" : "NORMAL"}, {"bufferView" : 6, "byteOffset" : 24, "componentType" : 5126, "count" : 24, "type" : "VEC2", "max" : [0.875, 1], "min" : [0.125, 0], "name" : "TEXCOORD_0"}, {"bufferView" : 0, "byteOffset" : 1284, "componentType" : 5123, "count" : 36, "type" : "SCALAR", "max" : [23], "min" : [0]}, {"bufferView" : 7, "byteOffset" : 0, "componentType" : 5126, "count" : 24, "type" : "VEC3", "max" : [0.5, 0.5, 0.5], "min" : [-0.5, -0.5, -0.5], "name" : "POSITION"}, {"bufferView" : 7, "byteOffset" : 12, "componentType" : 5126, "count" : 24, "type" : "VEC3", "max" : [1.0000044107437134, 1.0000044107437134, 1.0000044107437134], "min" : [-1.0000044107437134, -1.0000044107437134, -1.0000044107437134], "name" : "NORMAL"}, {"bufferView" : 7, "byteOffset" : 24, "componentType" : 5126, "count" : 24, "type" : "VEC2", "max" : [0.875, 1], "min" : [0.125, 0], "name" : "TEXCOORD_0"}, {"bufferView" : 0, "byteOffset" : 1356, "componentType" : 5123, "count" : 36, "type" : "SCALAR", "max" : [23], "min" : [0]}, {"bufferView" : 8, "byteOffset" : 0, "componentType" : 5126, "count" : 24, "type" : "VEC3", "max" : [0.5, 0.5, 0.5], "min" : [-0.5, -0.5, -0.5], "name" : "POSITION"}, {"bufferView" : 8, "byteOffset" : 12, "componentType" : 5126, "count" : 24, "type" : "VEC3", "max" : [1.0000044107437134, 1.0000044107437134, 1.0000044107437134], "min" : [-1.0000044107437134, -1.0000044107437134, -1.0000044107437134], "name" : "NORMAL"}, {"bufferView" : 8, "byteOffset" : 24, "componentType" : 5126, "count" : 24, "type" : "VEC2", "max" : [0.875, 1], "min" : [0.125, 0], "name" : "TEXCOORD_0"}, {"bufferView" : 0, "byteOffset" : 1428, "componentType" : 5123, "count" : 36, "type" : "SCALAR", "max" : [23], "min" : [0]}, {"bufferView" : 9, "byteOffset" : 0, "componentType" : 5126, "count" : 24, "type" : "VEC3", "max" : [0.5, 0.5, 0.5], "min" : [-0.5, -0.5, -0.5], "name" : "POSITION"}, {"bufferView" : 9, "byteOffset" : 12, "componentType" : 5126, "count" : 24, "type" : "VEC3", "max" : [1.0000044107437134, 1.0000044107437134, 1.0000044107437134], "min" : [-1.0000044107437134, -1.0000044107437134, -1.0000044107437134], "name" : "NORMAL"}, {"bufferView" : 9, "byteOffset" : 24, "componentType" : 5126, "count" : 24, "type" : "VEC2", "max" : [0.875, 1], "min" : [0.125, 0], "name" : "TEXCOORD_0"}, {"bufferView" : 0, "byteOffset" : 1500, "componentType" : 5123, "count" : 36, "type" : "SCALAR", "max" : [23], "min" : [0]}, {"bufferView" : 10, "byteOffset" : 0, "componentType" : 5126, "count" : 24, "type" : "VEC3", "max" : [0.5, 0.5, 0.5], "min" : [-0.5, -0.5, -0.5], "name" : "POSITION"}, {"bufferView" : 10, "byteOffset" : 12, "componentType" : 5126, "count" : 24, "type" : "VEC3", "max" : [1.0000044107437134, 1.0000044107437134, 1.0000044107437134], "min" : [-1.0000044107437134, -1.0000044107437134, -1.0000044107437134], "name" : "NORMAL"}, {"bufferView" : 10, "byteOffset" : 24, "componentType" : 5126, "count" : 24, "type" : "VEC2", "max" : [0.875, 1], "min" : [0.125, 0], "name" : "TEXCOORD_0"}, {"bufferView" : 0, "byteOffset" : 1572, "componentType" : 5123, "count" : 36, "type" : "SCALAR", "max" : [23], "min" : [0]}, {"bufferView" : 11, "byteOffset" : 0, "componentType" : 5126, "count" : 24, "type" : "VEC3", "max" : [0.5, 0.5, 0.5], "min" : [-0.5, -0.5, -0.5], "name" : "POSITION"}, {"bufferView" : 11, "byteOffset" : 12, "componentType" : 5126, "count" : 24, "type" : "VEC3", "max" : [1.0000044107437134, 1.0000044107437134, 1.0000044107437134], "min" : [-1.0000044107437134, -1.0000044107437134, -1.0000044107437134], "name" : "NORMAL"}, {"bufferView" : 11, "byteOffset" : 24, "componentType" : 5126, "count" : 24, "type" : "VEC2", "max" : [0.875, 1], "min" : [0.125, 0], "name" : "TEXCOORD_0"}, {"bufferView" : 0, "byteOffset" : 1644, "componentType" : 5123, "count" : 36, "type" : "SCALAR", "max" : [23], "min" : [0]}, {"bufferView" : 12, "byteOffset" : 0, "componentType" : 5126, "count" : 24, "type" : "VEC3", "max" : [0.5, 0.5, 0.5], "min" : [-0.5, -0.5, -0.5], "name" : "POSITION"}, {"bufferView" : 12, "byteOffset" : 12, "componentType" : 5126, "count" : 24, "type" : "VEC3", "max" : [1.0000044107437134, 1.0000044107437134, 1.0000044107437134], "min" : [-1.0000044107437134, -1.0000044107437134, -1.0000044107437134], "name" : "NORMAL"}, {"bufferView" : 12, "byteOffset" : 24, "componentType" : 5126, "count" : 24, "type" : "VEC2", "max" : [0.875, 1], "min" : [0.125, 0], "name" : "TEXCOORD_0"}, {"bufferView" : 0, "byteOffset" : 1716, "componentType" : 5123, "count" : 36, "type" : "SCALAR", "max" : [23], "min" : [0]}, {"bufferView" : 13, "byteOffset" : 0, "componentType" : 5126, "count" : 24, "type" : "VEC3", "max" : [0.5, 0.5, 0.5], "min" : [-0.5, -0.5, -0.5], "name" : "POSITION"}, {"bufferView" : 13, "byteOffset" : 12, "componentType" : 5126, "count" : 24, "type" : "VEC3", "max" : [1.0000044107437134, 1.0000044107437134, 1.0000044107437134], "min" : [-1.0000044107437134, -1.0000044107437134, -1.0000044107437134], "name" : "NORMAL"}, {"bufferView" : 13, "byteOffset" : 24, "componentType" : 5126, "count" : 24, "type" : "VEC2", "max" : [0.875, 1], "min" : [0.125, 0], "name" : "TEXCOORD_0"}, {"bufferView" : 0, "byteOffset" : 1788, "componentType" : 5123, "count" : 36, "type" : "SCALAR", "max" : [23], "min" : [0]}, {"bufferView" : 14, "byteOffset" : 0, "componentType" : 5126, "count" : 24, "type" : "VEC3", "max" : [0.5, 0.5, 0.5], "min" : [-0.5, -0.5, -0.5], "name" : "POSITION"}, {"bufferView" : 14, "byteOffset" : 12, "componentType" : 5126, "count" : 24, "type" : "VEC3", "max" : [1.0000044107437134, 1.0000044107437134, 1.0000044107437134], "min" : [-1.0000044107437134, -1.0000044107437134, -1.0000044107437134], "name" : "NORMAL"}, {"bufferView" : 14, "byteOffset" : 24, "componentType" : 5126, "count" : 24, "type" : "VEC2", "max" : [0.875, 1], "min" : [0.125, 0], "name" : "TEXCOORD_0"}, {"bufferView" : 0, "byteOffset" : 1860, "componentType" : 5123, "count" : 36, "type" : "SCALAR", "max" : [23], "min" : [0]}, {"bufferView" : 15, "byteOffset" : 0, "componentType" : 5126, "count" : 24, "type" : "VEC3", "max" : [0.5, 0.5, 0.5], "min" : [-0.5, -0.5, -0.5], "name" : "POSITION"}, {"bufferView" : 15, "byteOffset" : 12, "componentType" : 5126, "count" : 24, "type" : "VEC3", "max" : [1.0000044107437134, 1.0000044107437134, 1.0000044107437134], "min" : [-1.0000044107437134, -1.0000044107437134, -1.0000044107437134], "name" : "NORMAL"}, {"bufferView" : 15, "byteOffset" : 24, "componentType" : 5126, "count" : 24, "type" : "VEC2", "max" : [0.875, 1], "min" : [0.125, 0], "name" : "TEXCOORD_0"}, {"bufferView" : 0, "byteOffset" : 1932, "componentType" : 5123, "count" : 36, "type" : "SCALAR", "max" : [23], "min" : [0]}, {"bufferView" : 16, "byteOffset" : 0, "componentType" : 5126, "count" : 24, "type" : "VEC3", "max" : [0.5, 0.5, 0.5], "min" : [-0.5, -0.5, -0.5], "name" : "POSITION"}, {"bufferView" : 16, "byteOffset" : 12, "componentType" : 5126, "count" : 24, "type" : "VEC3", "max" : [1.0000044107437134, 1.0000044107437134, 1.0000044107437134], "min" : [-1.0000044107437134, -1.0000044107437134, -1.0000044107437134], "name" : "NORMAL"}, {"bufferView" : 16, "byteOffset" : 24, "componentType" : 5126, "count" : 24, "type" : "VEC2", "max" : [0.875, 1], "min" : [0.125, 0], "name" : "TEXCOORD_0"}, {"bufferView" : 0, "byteOffset" : 2004, "componentType" : 5123, "count" : 36, "type" : "SCALAR", "max" : [23], "min" : [0]}, {"bufferView" : 17, "byteOffset" : 0, "componentType" : 5126, "count" : 24, "type" : "VEC3", "max" : [0.5, 0.5, 0.5], "min" : [-0.5, -0.5, -0.5], "name" : "POSITION"}, {"bufferView" : 17, "byteOffset" : 12, "componentType" : 5126, "count" : 24, "type" : "VEC3", "max" : [1.0000044107437134, 1.0000044107437134, 1.0000044107437134], "min" : [-1.0000044107437134, -1.0000044107437134, -1.0000044107437134], "name" : "NORMAL"}, {"bufferView" : 17, "byteOffset" : 24, "componentType" : 5126, "count" : 24, "type" : "VEC2", "max" : [0.875, 1], "min" : [0.125, 0], "name" : "TEXCOORD_0"}, {"bufferView" : 0, "byteOffset" : 2076, "componentType" : 5123, "count" : 36, "type" : "SCALAR", "max" : [23], "min" : [0]}, {"bufferView" : 18, "byteOffset" : 0, "componentType" : 5126, "count" : 24, "type" : "VEC3", "max" : [0.5, 0.5, 0.5], "min" : [-0.5, -0.5, -0.5], "name" : "POSITION"}, {"bufferView" : 18, "byteOffset" : 12, "componentType" : 5126, "count" : 24, "type" : "VEC3", "max" : [1.0000044107437134, 1.0000044107437134, 1.0000044107437134], "min" : [-1.0000044107437134, -1.0000044107437134, -1.0000044107437134], "name" : "NORMAL"}, {"bufferView" : 18, "byteOffset" : 24, "componentType" : 5126, "count" : 24, "type" : "VEC2", "max" : [0.875, 1], "min" : [0.125, 0], "name" : "TEXCOORD_0"}, {"bufferView" : 0, "byteOffset" : 2148, "componentType" : 5123, "count" : 36, "type" : "SCALAR", "max" : [23], "min" : [0]}, {"bufferView" : 19, "byteOffset" : 0, "componentType" : 5126, "count" : 24, "type" : "VEC3", "max" : [0.5, 0.5, 0.5], "min" : [-0.5, -0.5, -0.5], "name" : "POSITION"}, {"bufferView" : 19, "byteOffset" : 12, "componentType" : 5126, "count" : 24, "type" : "VEC3", "max" : [1.0000044107437134, 1.0000044107437134, 1.0000044107437134], "min" : [-1.0000044107437134, -1.0000044107437134, -1.0000044107437134], "name" : "NORMAL"}, {"bufferView" : 19, "byteOffset" : 24, "componentType" : 5126, "count" : 24, "type" : "VEC2", "max" : [0.875, 1], "min" : [0.125, 0], "name" : "TEXCOORD_0"}, {"bufferView" : 0, "byteOffset" : 2220, "componentType" : 5123, "count" : 36, "type" : "SCALAR", "max" : [23], "min" : [0]}, {"bufferView" : 20, "byteOffset" : 0, "componentType" : 5126, "count" : 24, "type" : "VEC3", "max" : [0.5, 0.5, 0.5], "min" : [-0.5, -0.5, -0.5], "name" : "POSITION"}, {"bufferView" : 20, "byteOffset" : 12, "componentType" : 5126, "count" : 24, "type" : "VEC3", "max" : [1.0000044107437134, 1.0000044107437134, 1.0000044107437134], "min" : [-1.0000044107437134, -1.0000044107437134, -1.0000044107437134], "name" : "NORMAL"}, {"bufferView" : 20, "byteOffset" : 24, "componentType" : 5126, "count" : 24, "type" : "VEC2", "max" : [0.875, 1], "min" : [0.125, 0], "name" : "TEXCOORD_0"}, {"bufferView" : 0, "byteOffset" : 2292, "componentType" : 5123, "count" : 36, "type" : "SCALAR", "max" : [23], "min" : [0]}, {"bufferView" : 21, "byteOffset" : 0, "componentType" : 5126, "count" : 24, "type" : "VEC3", "max" : [0.5, 0.5, 0.5], "min" : [-0.5, -0.5, -0.5], "name" : "POSITION"}, {"bufferView" : 21, "byteOffset" : 12, "componentType" : 5126, "count" : 24, "type" : "VEC3", "max" : [1.0000044107437134, 1.0000044107437134, 1.0000044107437134], "min" : [-1.0000044107437134, -1.0000044107437134, -1.0000044107437134], "name" : "NORMAL"}, {"bufferView" : 21, "byteOffset" : 24, "componentType" : 5126, "count" : 24, "type" : "VEC2", "max" : [0.875, 1], "min" : [0.125, 0], "name" : "TEXCOORD_0"}, {"bufferView" : 0, "byteOffset" : 2364, "componentType" : 5123, "count" : 36, "type" : "SCALAR", "max" : [23], "min" : [0]}, {"bufferView" : 22, "byteOffset" : 0, "componentType" : 5126, "count" : 24, "type" : "VEC3", "max" : [0.5, 0.5, 0.5], "min" : [-0.5, -0.5, -0.5], "name" : "POSITION"}, {"bufferView" : 22, "byteOffset" : 12, "componentType" : 5126, "count" : 24, "type" : "VEC3", "max" : [1.0000044107437134, 1.0000044107437134, 1.0000044107437134], "min" : [-1.0000044107437134, -1.0000044107437134, -1.0000044107437134], "name" : "NORMAL"}, {"bufferView" : 22, "byteOffset" : 24, "componentType" : 5126, "count" : 24, "type" : "VEC2", "max" : [0.875, 1], "min" : [0.125, 0], "name" : "TEXCOORD_0"}, {"bufferView" : 0, "byteOffset" : 2436, "componentType" : 5123, "count" : 36, "type" : "SCALAR", "max" : [23], "min" : [0]}, {"bufferView" : 23, "byteOffset" : 0, "componentType" : 5126, "count" : 24, "type" : "VEC3", "max" : [0.5, 0.5, 0.5], "min" : [-0.5, -0.5, -0.5], "name" : "POSITION"}, {"bufferView" : 23, "byteOffset" : 12, "componentType" : 5126, "count" : 24, "type" : "VEC3", "max" : [1.0000044107437134, 1.0000044107437134, 1.0000044107437134], "min" : [-1.0000044107437134, -1.0000044107437134, -1.0000044107437134], "name" : "NORMAL"}, {"bufferView" : 23, "byteOffset" : 24, "componentType" : 5126, "count" : 24, "type" : "VEC2", "max" : [0.875, 1], "min" : [0.125, 0], "name" : "TEXCOORD_0"}, {"bufferView" : 0, "byteOffset" : 2508, "componentType" : 5123, "count" : 36, "type" : "SCALAR", "max" : [23], "min" : [0]}, {"bufferView" : 24, "byteOffset" : 0, "componentType" : 5126, "count" : 24, "type" : "VEC3", "max" : [0.5, 0.5, 0.5], "min" : [-0.5, -0.5, -0.5], "name" : "POSITION"}, {"bufferView" : 24, "byteOffset" : 12, "componentType" : 5126, "count" : 24, "type" : "VEC3", "max" : [1.0000044107437134, 1.0000044107437134, 1.0000044107437134], "min" : [-1.0000044107437134, -1.0000044107437134, -1.0000044107437134], "name" : "NORMAL"}, {"bufferView" : 24, "byteOffset" : 24, "componentType" : 5126, "count" : 24, "type" : "VEC2", "max" : [0.875, 1], "min" : [0.125, 0], "name" : "TEXCOORD_0"}, {"bufferView" : 0, "byteOffset" : 2580, "componentType" : 5123, "count" : 36, "type" : "SCALAR", "max" : [23], "min" : [0]}, {"bufferView" : 25, "byteOffset" : 0, "componentType" : 5126, "count" : 24, "type" : "VEC3", "max" : [0.5, 0.5, 0.5], "min" : [-0.5, -0.5, -0.5], "name" : "POSITION"}, {"bufferView" : 25, "byteOffset" : 12, "componentType" : 5126, "count" : 24, "type" : "VEC3", "max" : [1.0000044107437134, 1.0000044107437134, 1.0000044107437134], "min" : [-1.0000044107437134, -1.0000044107437134, -1.0000044107437134], "name" : "NORMAL"}, {"bufferView" : 25, "byteOffset" : 24, "componentType" : 5126, "count" : 24, "type" : "VEC2", "max" : [0.875, 1], "min" : [0.125, 0], "name" : "TEXCOORD_0"}, {"bufferView" : 0, "byteOffset" : 2652, "componentType" : 5123, "count" : 36, "type" : "SCALAR", "max" : [23], "min" : [0]}, {"bufferView" : 26, "byteOffset" : 0, "componentType" : 5126, "count" : 24, "type" : "VEC3", "max" : [0.5, 0.5, 0.5], "min" : [-0.5, -0.5, -0.5], "name" : "POSITION"}, {"bufferView" : 26, "byteOffset" : 12, "componentType" : 5126, "count" : 24, "type" : "VEC3", "max" : [1.0000044107437134, 1.0000044107437134, 1.0000044107437134], "min" : [-1.0000044107437134, -1.0000044107437134, -1.0000044107437134], "name" : "NORMAL"}, {"bufferView" : 26, "byteOffset" : 24, "componentType" : 5126, "count" : 24, "type" : "VEC2", "max" : [0.875, 1], "min" : [0.125, 0], "name" : "TEXCOORD_0"}, {"bufferView" : 0, "byteOffset" : 2724, "componentType" : 5123, "count" : 36, "type" : "SCALAR", "max" : [23], "min" : [0]}, {"bufferView" : 27, "byteOffset" : 0, "componentType" : 5126, "count" : 24, "type" : "VEC3", "max" : [0.5, 0.5, 0.5], "min" : [-0.5, -0.5, -0.5], "name" : "POSITION"}, {"bufferView" : 27, "byteOffset" : 12, "componentType" : 5126, "count" : 24, "type" : "VEC3", "max" : [1.0000044107437134, 1.0000044107437134, 1.0000044107437134], "min" : [-1.0000044107437134, -1.0000044107437134, -1.0000044107437134], "name" : "NORMAL"}, {"bufferView" : 27, "byteOffset" : 24, "componentType" : 5126, "count" : 24, "type" : "VEC2", "max" : [0.875, 1], "min" : [0.125, 0], "name" : "TEXCOORD_0"}, {"bufferView" : 0, "byteOffset" : 2796, "componentType" : 5123, "count" : 36, "type" : "SCALAR", "max" : [23], "min" : [0]}, {"bufferView" : 28, "byteOffset" : 0, "componentType" : 5126, "count" : 24, "type" : "VEC3", "max" : [0.5, 0.5, 0.5], "min" : [-0.5, -0.5, -0.5], "name" : "POSITION"}, {"bufferView" : 28, "byteOffset" : 12, "componentType" : 5126, "count" : 24, "type" : "VEC3", "max" : [1.0000044107437134, 1.0000044107437134, 1.0000044107437134], "min" : [-1.0000044107437134, -1.0000044107437134, -1.0000044107437134], "name" : "NORMAL"}, {"bufferView" : 28, "byteOffset" : 24, "componentType" : 5126, "count" : 24, "type" : "VEC2", "max" : [0.875, 1], "min" : [0.125, 0], "name" : "TEXCOORD_0"}, {"bufferView" : 0, "byteOffset" : 2868, "componentType" : 5123, "count" : 36, "type" : "SCALAR", "max" : [23], "min" : [0]}, {"bufferView" : 29, "byteOffset" : 0, "componentType" : 5126, "count" : 24, "type" : "VEC3", "max" : [0.5, 0.5, 0.5], "min" : [-0.5, -0.5, -0.5], "name" : "POSITION"}, {"bufferView" : 29, "byteOffset" : 12, "componentType" : 5126, "count" : 24, "type" : "VEC3", "max" : [1.0000044107437134, 1.0000044107437134, 1.0000044107437134], "min" : [-1.0000044107437134, -1.0000044107437134, -1.0000044107437134], "name" : "NORMAL"}, {"bufferView" : 29, "byteOffset" : 24, "componentType" : 5126, "count" : 24, "type" : "VEC2", "max" : [0.875, 1], "min" : [0.125, 0], "name" : "TEXCOORD_0"}, {"bufferView" : 0, "byteOffset" : 2940, "componentType" : 5123, "count" : 36, "type" : "SCALAR", "max" : [23], "min" : [0]}, {"bufferView" : 30, "byteOffset" : 0, "componentType" : 5126, "count" : 24, "type" : "VEC3", "max" : [0.5, 0.5, 0.5], "min" : [-0.5, -0.5, -0.5], "name" : "POSITION"}, {"bufferView" : 30, "byteOffset" : 12, "componentType" : 5126, "count" : 24, "type" : "VEC3", "max" : [1.0000044107437134, 1.0000044107437134, 1.0000044107437134], "min" : [-1.0000044107437134, -1.0000044107437134, -1.0000044107437134], "name" : "NORMAL"}, {"bufferView" : 30, "byteOffset" : 24, "componentType" : 5126, "count" : 24, "type" : "VEC2", "max" : [0.875, 1], "min" : [0.125, 0], "name" : "TEXCOORD_0"}, {"bufferView" : 0, "byteOffset" : 3012, "componentType" : 5123, "count" : 36, "type" : "SCALAR", "max" : [23], "min" : [0]}, {"bufferView" : 31, "byteOffset" : 0, "componentType" : 5126, "count" : 24, "type" : "VEC3", "max" : [0.5, 0.5, 0.5], "min" : [-0.5, -0.5, -0.5], "name" : "POSITION"}, {"bufferView" : 31, "byteOffset" : 12, "componentType" : 5126, "count" : 24, "type" : "VEC3", "max" : [0.9853151440620422, 1.0000044107437134, 1.0000044107437134], "min" : [-0.9853151440620422, -1.0000044107437134, -1.0000044107437134], "name" : "NORMAL"}, {"bufferView" : 31, "byteOffset" : 24, "componentType" : 5126, "count" : 24, "type" : "VEC2", "max" : [0.875, 1], "min" : [0.125, 0], "name" : "TEXCOORD_0"}, {"bufferView" : 0, "byteOffset" : 3084, "componentType" : 5123, "count" : 36, "type" : "SCALAR", "max" : [23], "min" : [0]}, {"bufferView" : 32, "byteOffset" : 0, "componentType" : 5126, "count" : 24, "type" : "VEC3", "max" : [0.5, 0.5, 0.5], "min" : [-0.5, -0.5, -0.5], "name" : "POSITION"}, {"bufferView" : 32, "byteOffset" : 12, "componentType" : 5126, "count" : 24, "type" : "VEC3", "max" : [0.9853151440620422, 1.0000044107437134, 1.0000044107437134], "min" : [-0.9853151440620422, -1.0000044107437134, -1.0000044107437134], "name" : "NORMAL"}, {"bufferView" : 32, "byteOffset" : 24, "componentType" : 5126, "count" : 24, "type" : "VEC2", "max" : [0.875, 1], "min" : [0.125, 0], "name" : "TEXCOORD_0"}, {"bufferView" : 0, "byteOffset" : 3156, "componentType" : 5123, "count" : 36, "type" : "SCALAR", "max" : [23], "min" : [0]}, {"bufferView" : 33, "byteOffset" : 0, "componentType" : 5126, "count" : 24, "type" : "VEC3", "max" : [0.5, 0.5, 0.5], "min" : [-0.5, -0.5, -0.5], "name" : "POSITION"}, {"bufferView" : 33, "byteOffset" : 12, "componentType" : 5126, "count" : 24, "type" : "VEC3", "max" : [0.9853151440620422, 1.0000044107437134, 1.0000044107437134], "min" : [-0.9853151440620422, -1.0000044107437134, -1.0000044107437134], "name" : "NORMAL"}, {"bufferView" : 33, "byteOffset" : 24, "componentType" : 5126, "count" : 24, "type" : "VEC2", "max" : [0.875, 1], "min" : [0.125, 0], "name" : "TEXCOORD_0"}], "asset" : {"generator" : "Aspose.3D 25.11.0", "version" : "2.0"}, "buffers" : [{"uri" : "data:application/octet-stream;base64,", "byteLength" : 37668}], "bufferViews" : [{"buffer" : 0, "byteOffset" : 0, "byteLength" : 3228, "target" : 34963}, {"buffer" : 0, "byteOffset" : 3232, "byteLength" : 9728, "byteStride" : 32, "target" : 34962}, {"buffer" : 0, "byteOffset" : 12964, "byteLength" : 768, "byteStride" : 32, "target" : 34962}, {"buffer" : 0, "byteOffset" : 13736, "byteLength" : 768, "byteStride" : 32, "target" : 34962}, {"buffer" : 0, "byteOffset" : 14508, "byteLength" : 768, "byteStride" : 32, "target" : 34962}, {"buffer" : 0, "byteOffset" : 15280, "byteLength" : 768, "byteStride" : 32, "target" : 34962}, {"buffer" : 0, "byteOffset" : 16052, "byteLength" : 768, "byteStride" : 32, "target" : 34962}, {"buffer" : 0, "byteOffset" : 16824, "byteLength" : 768, "byteStride" : 32, "target" : 34962}, {"buffer" : 0, "byteOffset" : 17596, "byteLength" : 768, "byteStride" : 32, "target" : 34962}, {"buffer" : 0, "byteOffset" : 18368, "byteLength" : 768, "byteStride" : 32, "target" : 34962}, {"buffer" : 0, "byteOffset" : 19140, "byteLength" : 768, "byteStride" : 32, "target" : 34962}, {"buffer" : 0, "byteOffset" : 19912, "byteLength" : 768, "byteStride" : 32, "target" : 34962}, {"buffer" : 0, "byteOffset" : 20684, "byteLength" : 768, "byteStride" : 32, "target" : 34962}, {"buffer" : 0, "byteOffset" : 21456, "byteLength" : 768, "byteStride" : 32, "target" : 34962}, {"buffer" : 0, "byteOffset" : 22228, "byteLength" : 768, "byteStride" : 32, "target" : 34962}, {"buffer" : 0, "byteOffset" : 23000, "byteLength" : 768, "byteStride" : 32, "target" : 34962}, {"buffer" : 0, "byteOffset" : 23772, "byteLength" : 768, "byteStride" : 32, "target" : 34962}, {"buffer" : 0, "byteOffset" : 24544, "byteLength" : 768, "byteStride" : 32, "target" : 34962}, {"buffer" : 0, "byteOffset" : 25316, "byteLength" : 768, "byteStride" : 32, "target" : 34962}, {"buffer" : 0, "byteOffset" : 26088, "byteLength" : 768, "byteStride" : 32, "target" : 34962}, {"buffer" : 0, "byteOffset" : 26860, "byteLength" : 768, "byteStride" : 32, "target" : 34962}, {"buffer" : 0, "byteOffset" : 27632, "byteLength" : 768, "byteStride" : 32, "target" : 34962}, {"buffer" : 0, "byteOffset" : 28404, "byteLength" : 768, "byteStride" : 32, "target" : 34962}, {"buffer" : 0, "byteOffset" : 29176, "byteLength" : 768, "byteStride" : 32, "target" : 34962}, {"buffer" : 0, "byteOffset" : 29948, "byteLength" : 768, "byteStride" : 32, "target" : 34962}, {"buffer" : 0, "byteOffset" : 30720, "byteLength" : 768, "byteStride" : 32, "target" : 34962}, {"buffer" : 0, "byteOffset" : 31492, "byteLength" : 768, "byteStride" : 32, "target" : 34962}, {"buffer" : 0, "byteOffset" : 32264, "byteLength" : 768, "byteStride" : 32, "target" : 34962}, {"buffer" : 0, "byteOffset" : 33036, "byteLength" : 768, "byteStride" : 32, "target" : 34962}, {"buffer" : 0, "byteOffset" : 33808, "byteLength" : 768, "byteStride" : 32, "target" : 34962}, {"buffer" : 0, "byteOffset" : 34580, "byteLength" : 768, "byteStride" : 32, "target" : 34962}, {"buffer" : 0, "byteOffset" : 35352, "byteLength" : 768, "byteStride" : 32, "target" : 34962}, {"buffer" : 0, "byteOffset" : 36124, "byteLength" : 768, "byteStride" : 32, "target" : 34962}, {"buffer" : 0, "byteOffset" : 36896, "byteLength" : 768, "byteStride" : 32, "target" : 34962}], "materials" : [{"name" : "openPBR_shader1", "pbrMetallicRoughness" : {"baseColorFactor" : [0, 0, 0, 1], "metallicFactor" : 1, "roughnessFactor" : 1}, "emissiveFactor" : [0, 0, 0], "alphaMode" : "OPAQUE", "doubleSided" : false}], "meshes" : [{"primitives" : [{"attributes" : {"POSITION" : 1, "NORMAL" : 2, "TEXCOORD_0" : 3}, "indices" : 0, "material" : 0, "mode" : 4}], "name" : ""}, {"primitives" : [{"attributes" : {"POSITION" : 5, "NORMAL" : 6, "TEXCOORD_0" : 7}, "indices" : 4, "material" : 0, "mode" : 4}], "name" : ""}, {"primitives" : [{"attributes" : {"POSITION" : 9, "NORMAL" : 10, "TEXCOORD_0" : 11}, "indices" : 8, "material" : 0, "mode" : 4}], "name" : ""}, {"primitives" : [{"attributes" : {"POSITION" : 13, "NORMAL" : 14, "TEXCOORD_0" : 15}, "indices" : 12, "material" : 0, "mode" : 4}], "name" : ""}, {"primitives" : [{"attributes" : {"POSITION" : 17, "NORMAL" : 18, "TEXCOORD_0" : 19}, "indices" : 16, "material" : 0, "mode" : 4}], "name" : ""}, {"primitives" : [{"attributes" : {"POSITION" : 21, "NORMAL" : 22, "TEXCOORD_0" : 23}, "indices" : 20, "material" : 0, "mode" : 4}], "name" : ""}, {"primitives" : [{"attributes" : {"POSITION" : 25, "NORMAL" : 26, "TEXCOORD_0" : 27}, "indices" : 24, "material" : 0, "mode" : 4}], "name" : ""}, {"primitives" : [{"attributes" : {"POSITION" : 29, "NORMAL" : 30, "TEXCOORD_0" : 31}, "indices" : 28, "material" : 0, "mode" : 4}], "name" : ""}, {"primitives" : [{"attributes" : {"POSITION" : 33, "NORMAL" : 34, "TEXCOORD_0" : 35}, "indices" : 32, "material" : 0, "mode" : 4}], "name" : ""}, {"primitives" : [{"attributes" : {"POSITION" : 37, "NORMAL" : 38, "TEXCOORD_0" : 39}, "indices" : 36, "material" : 0, "mode" : 4}], "name" : ""}, {"primitives" : [{"attributes" : {"POSITION" : 41, "NORMAL" : 42, "TEXCOORD_0" : 43}, "indices" : 40, "material" : 0, "mode" : 4}], "name" : ""}, {"primitives" : [{"attributes" : {"POSITION" : 45, "NORMAL" : 46, "TEXCOORD_0" : 47}, "indices" : 44, "material" : 0, "mode" : 4}], "name" : ""}, {"primitives" : [{"attributes" : {"POSITION" : 49, "NORMAL" : 50, "TEXCOORD_0" : 51}, "indices" : 48, "material" : 0, "mode" : 4}], "name" : ""}, {"primitives" : [{"attributes" : {"POSITION" : 53, "NORMAL" : 54, "TEXCOORD_0" : 55}, "indices" : 52, "material" : 0, "mode" : 4}], "name" : ""}, {"primitives" : [{"attributes" : {"POSITION" : 57, "NORMAL" : 58, "TEXCOORD_0" : 59}, "indices" : 56, "material" : 0, "mode" : 4}], "name" : ""}, {"primitives" : [{"attributes" : {"POSITION" : 61, "NORMAL" : 62, "TEXCOORD_0" : 63}, "indices" : 60, "material" : 0, "mode" : 4}], "name" : ""}, {"primitives" : [{"attributes" : {"POSITION" : 65, "NORMAL" : 66, "TEXCOORD_0" : 67}, "indices" : 64, "material" : 0, "mode" : 4}], "name" : ""}, {"primitives" : [{"attributes" : {"POSITION" : 69, "NORMAL" : 70, "TEXCOORD_0" : 71}, "indices" : 68, "material" : 0, "mode" : 4}], "name" : ""}, {"primitives" : [{"attributes" : {"POSITION" : 73, "NORMAL" : 74, "TEXCOORD_0" : 75}, "indices" : 72, "material" : 0, "mode" : 4}], "name" : ""}, {"primitives" : [{"attributes" : {"POSITION" : 77, "NORMAL" : 78, "TEXCOORD_0" : 79}, "indices" : 76, "material" : 0, "mode" : 4}], "name" : ""}, {"primitives" : [{"attributes" : {"POSITION" : 81, "NORMAL" : 82, "TEXCOORD_0" : 83}, "indices" : 80, "material" : 0, "mode" : 4}], "name" : ""}, {"primitives" : [{"attributes" : {"POSITION" : 85, "NORMAL" : 86, "TEXCOORD_0" : 87}, "indices" : 84, "material" : 0, "mode" : 4}], "name" : ""}, {"primitives" : [{"attributes" : {"POSITION" : 89, "NORMAL" : 90, "TEXCOORD_0" : 91}, "indices" : 88, "material" : 0, "mode" : 4}], "name" : ""}, {"primitives" : [{"attributes" : {"POSITION" : 93, "NORMAL" : 94, "TEXCOORD_0" : 95}, "indices" : 92, "material" : 0, "mode" : 4}], "name" : ""}, {"primitives" : [{"attributes" : {"POSITION" : 97, "NORMAL" : 98, "TEXCOORD_0" : 99}, "indices" : 96, "material" : 0, "mode" : 4}], "name" : ""}, {"primitives" : [{"attributes" : {"POSITION" : 101, "NORMAL" : 102, "TEXCOORD_0" : 103}, "indices" : 100, "material" : 0, "mode" : 4}], "name" : ""}, {"primitives" : [{"attributes" : {"POSITION" : 105, "NORMAL" : 106, "TEXCOORD_0" : 107}, "indices" : 104, "material" : 0, "mode" : 4}], "name" : ""}, {"primitives" : [{"attributes" : {"POSITION" : 109, "NORMAL" : 110, "TEXCOORD_0" : 111}, "indices" : 108, "material" : 0, "mode" : 4}], "name" : ""}, {"primitives" : [{"attributes" : {"POSITION" : 113, "NORMAL" : 114, "TEXCOORD_0" : 115}, "indices" : 112, "material" : 0, "mode" : 4}], "name" : ""}, {"primitives" : [{"attributes" : {"POSITION" : 117, "NORMAL" : 118, "TEXCOORD_0" : 119}, "indices" : 116, "material" : 0, "mode" : 4}], "name" : ""}, {"primitives" : [{"attributes" : {"POSITION" : 121, "NORMAL" : 122, "TEXCOORD_0" : 123}, "indices" : 120, "material" : 0, "mode" : 4}], "name" : ""}, {"primitives" : [{"attributes" : {"POSITION" : 125, "NORMAL" : 126, "TEXCOORD_0" : 127}, "indices" : 124, "material" : 0, "mode" : 4}], "name" : ""}, {"primitives" : [{"attributes" : {"POSITION" : 129, "NORMAL" : 130, "TEXCOORD_0" : 131}, "indices" : 128, "material" : 0, "mode" : 4}], "name" : ""}], "nodes" : [{"matrix" : [33.02695964264482, 0, 0, 0, 0, 15.874961036385905, 0, 0, 0, 0, 0.5043837391014757, 0, 0, 7.0581159730232015, 0, 1], "mesh" : 0, "name" : "pCube1"}, {"matrix" : [33.08467211598039, 0, 0, 0, 0, 0.9956100876283986, -0.09359782803341311, 0, 0, 0.008252838909932494, 0.08778632841103678, 0, 0, 6.7301235921139195, 0.25599652878158174, 1], "mesh" : 1, "name" : "pCube5"}, {"matrix" : [33.08467211598039, 0, 0, 0, 0, 0.9956100876283986, -0.09359782803341311, 0, 0, 0.008252838909932494, 0.08778632841103678, 0, 0, 7.3134770982181045, 0.25599652878158174, 1], "mesh" : 2, "name" : "pCube6"}, {"matrix" : [33.08467211598039, 0, 0, 0, 0, 0.9956100876283986, -0.09359782803341311, 0, 0, 0.008252838909932494, 0.08778632841103678, 0, 0, 7.888625535980404, 0.25599652878158174, 1], "mesh" : 3, "name" : "pCube7"}, {"matrix" : [33.08467211598039, 0, 0, 0, 0, 0.9956100876283986, -0.09359782803341311, 0, 0, 0.008252838909932494, 0.08778632841103678, 0, 0, 8.497242830108362, 0.25599652878158174, 1], "mesh" : 4, "name" : "pCube8"}, {"matrix" : [33.08467211598039, 0, 0, 0, 0, 0.9956100876283986, -0.09359782803341311, 0, 0, 0.008252838909932494, 0.08778632841103678, 0, 0, 9.230069545681685, 0.25599652878158174, 1], "mesh" : 5, "name" : "pCube9"}, {"matrix" : [33.08467211598039, 0, 0, 0, 0, 0.9956100876283986, -0.09359782803341311, 0, 0, 0.008252838909932494, 0.08778632841103678, 0, 0, 9.961698934354096, 0.25599652878158174, 1], "mesh" : 6, "name" : "pCube10"}, {"matrix" : [33.08467211598039, 0, 0, 0, 0, 0.9956100876283986, -0.09359782803341311, 0, 0, 0.008252838909932494, 0.08778632841103678, 0, 0, 10.595929293437987, 0.25599652878158174, 1], "mesh" : 7, "name" : "pCube11"}, {"matrix" : [33.08467211598039, 0, 0, 0, 0, 0.9956100876283986, -0.09359782803341311, 0, 0, 0.008252838909932494, 0.08778632841103678, 0, 0, 11.32412882043978, 0.25599652878158174, 1], "mesh" : 8, "name" : "pCube12"}, {"matrix" : [33.08467211598039, 0, 0, 0, 0, 0.9956100876283986, -0.09359782803341311, 0, 0, 0.008252838909932494, 0.08778632841103678, 0, 0, 11.925411000224875, 0.25599652878158174, 1], "mesh" : 9, "name" : "pCube13"}, {"matrix" : [33.08467211598039, 0, 0, 0, 0, 0.9956100876283986, -0.09359782803341311, 0, 0, 0.008252838909932494, 0.08778632841103678, 0, 0, 12.717810207279749, 0.25599652878158174, 1], "mesh" : 10, "name" : "pCube14"}, {"matrix" : [33.08467211598039, 0, 0, 0, 0, 0.9956100876283986, -0.09359782803341311, 0, 0, 0.008252838909932494, 0.08778632841103678, 0, 0, 13.414914249047907, 0.25599652878158174, 1], "mesh" : 11, "name" : "pCube15"}, {"matrix" : [33.08467211598039, 0, 0, 0, 0, 0.9956100876283986, -0.09359782803341311, 0, 0, 0.008252838909932494, 0.08778632841103678, 0, 0, 14.0478415035357, 0.25599652878158174, 1], "mesh" : 12, "name" : "pCube16"}, {"matrix" : [33.08467211598039, 0, 0, 0, 0, 0.9956100876283986, -0.09359782803341311, 0, 0, 0.008252838909932494, 0.08778632841103678, 0, 0, 6.096128877593914, 0.25599652878158174, 1], "mesh" : 13, "name" : "pCube17"}, {"matrix" : [33.08467211598039, 0, 0, 0, 0, 0.9956100876283986, -0.09359782803341311, 0, 0, 0.008252838909932494, 0.08778632841103678, 0, 0, 6.096128877593914, 0.25599652878158174, 1], "mesh" : 14, "name" : "pCube18"}, {"matrix" : [33.08467211598039, 0, 0, 0, 0, 0.9956100876283986, -0.09359782803341311, 0, 0, 0.008252838909932494, 0.08778632841103678, 0, 0, 6.096128877593914, 2.7348793132942317, 1], "mesh" : 15, "name" : "pCube19"}, {"matrix" : [33.08467211598039, 0, 0, 0, 0, 0.9956100876283986, -0.09359782803341311, 0, 0, 0.008252838909932494, 0.08778632841103678, 0, 0, 6.096128877593914, 2.7348793132942317, 1], "mesh" : 16, "name" : "pCube20"}, {"matrix" : [33.08467211598039, 0, 0, 0, 0, 0.9956100876283986, -0.09359782803341311, 0, 0, 0.008252838909932494, 0.08778632841103678, 0, 0, 14.0478415035357, 2.7348793132942317, 1], "mesh" : 17, "name" : "pCube21"}, {"matrix" : [33.08467211598039, 0, 0, 0, 0, 0.9956100876283986, -0.09359782803341311, 0, 0, 0.008252838909932494, 0.08778632841103678, 0, 0, 13.414914249047907, 2.7348793132942317, 1], "mesh" : 18, "name" : "pCube22"}, {"matrix" : [33.08467211598039, 0, 0, 0, 0, 0.9956100876283986, -0.09359782803341311, 0, 0, 0.008252838909932494, 0.08778632841103678, 0, 0, 12.717810207279749, 2.7348793132942317, 1], "mesh" : 19, "name" : "pCube23"}, {"matrix" : [33.08467211598039, 0, 0, 0, 0, 0.9956100876283986, -0.09359782803341311, 0, 0, 0.008252838909932494, 0.08778632841103678, 0, 0, 11.925411000224875, 2.7348793132942317, 1], "mesh" : 20, "name" : "pCube24"}, {"matrix" : [33.08467211598039, 0, 0, 0, 0, 0.9956100876283986, -0.09359782803341311, 0, 0, 0.008252838909932494, 0.08778632841103678, 0, 0, 11.32412882043978, 2.7348793132942317, 1], "mesh" : 21, "name" : "pCube25"}, {"matrix" : [33.08467211598039, 0, 0, 0, 0, 0.9956100876283986, -0.09359782803341311, 0, 0, 0.008252838909932494, 0.08778632841103678, 0, 0, 10.595929293437987, 2.7348793132942317, 1], "mesh" : 22, "name" : "pCube26"}, {"matrix" : [33.08467211598039, 0, 0, 0, 0, 0.9956100876283986, -0.09359782803341311, 0, 0, 0.008252838909932494, 0.08778632841103678, 0, 0, 9.961698934354096, 2.7348793132942317, 1], "mesh" : 23, "name" : "pCube27"}, {"matrix" : [33.08467211598039, 0, 0, 0, 0, 0.9956100876283986, -0.09359782803341311, 0, 0, 0.008252838909932494, 0.08778632841103678, 0, 0, 9.230069545681685, 2.7348793132942317, 1], "mesh" : 24, "name" : "pCube28"}, {"matrix" : [33.08467211598039, 0, 0, 0, 0, 0.9956100876283986, -0.09359782803341311, 0, 0, 0.008252838909932494, 0.08778632841103678, 0, 0, 8.497242830108362, 2.7348793132942317, 1], "mesh" : 25, "name" : "pCube29"}, {"matrix" : [33.08467211598039, 0, 0, 0, 0, 0.9956100876283986, -0.09359782803341311, 0, 0, 0.008252838909932494, 0.08778632841103678, 0, 0, 7.888625535980404, 2.7348793132942317, 1], "mesh" : 26, "name" : "pCube30"}, {"matrix" : [33.08467211598039, 0, 0, 0, 0, 0.9956100876283986, -0.09359782803341311, 0, 0, 0.008252838909932494, 0.08778632841103678, 0, 0, 7.3134770982181045, 2.7348793132942317, 1], "mesh" : 27, "name" : "pCube31"}, {"matrix" : [33.08467211598039, 0, 0, 0, 0, 0.9956100876283986, -0.09359782803341311, 0, 0, 0.008252838909932494, 0.08778632841103678, 0, 0, 6.7301235921139195, 2.7348793132942317, 1], "mesh" : 28, "name" : "pCube32"}, {"matrix" : [31.64660855055164, 0, 0, 0, 0, 0.9956100876283986, -0.09359782803341311, 0, 0, 0.008252838909932494, 0.08778632841103678, 0, 0, 14.609952130962467, 2.7348793132942317, 1], "mesh" : 29, "name" : "pCube33"}, {"matrix" : [27.10070568684822, 0, 0, 0, 0, 0.9956100876283986, -0.09359782803341311, 0, 0, 0.008252838909932494, 0.08778632841103678, 0, 0, 16.009317680951696, 2.7348793132942317, 1], "mesh" : 30, "name" : "pCube34"}, {"matrix" : [32.52587548837179, 0, 0, 0, 0, 0.9956100876283986, -0.09359782803341311, 0, 0, 0.008252838909932494, 0.08778632841103678, 0, 0, 15.489617713105403, 2.7348793132942317, 1], "mesh" : 31, "name" : "pCube35"}, {"matrix" : [17.62496022574588, 0, 0, 0, 0, 0.9956100876283986, -0.09359782803341311, 0, 0, 0.008252838909932494, 0.08778632841103678, 0, -0.7406207395257013, 16.770500331280846, 2.7348793132942317, 1], "mesh" : 32, "name" : "pCube36"}, {"children" : [15, 16, 17, 18, 19, 20, 21, 22, 23, 24, 25, 26, 27, 28, 29, 30, 31, 32], "matrix" : [0.594317165105829, 0, 0, 0, 0, 1, 0, 0, 0, 0, 1, 0, -6.815605162740318, 0, -0.40032005665065995, 1], "name" : "group1"}], "scene" : 0, "scenes" : [{"nodes" : [0, 1, 2, 3, 4, 5, 6, 7, 8, 9, 10, 11, 12, 13, 14, 33]}]}