{"accessors" : [{"bufferView" : 0, "byteOffset" : 0, "componentType" : 5123, "count" : 84, "type" : "SCALAR", "max" : [55], "min" : [0]}, {"bufferView" : 1, "byteOffset" : 0, "componentType" : 5126, "count" : 56, "type" : "VEC3", "max" : [0.5000001192092896, 0.5, 0.5], "min" : [-0.5, -0.5000004768371582, -0.5], "name" : "POSITION"}, {"bufferView" : 1, "byteOffset" : 12, "componentType" : 5126, "count" : 56, "type" : "VEC3", "max" : [1.0000044107437134, 1.0000044107437134, 1.0000044107437134], "min" : [-1.0000044107437134, -1.0000044107437134, -1.0000044107437134], "name" : "NORMAL"}, {"bufferView" : 1, "byteOffset" : 24, "componentType" : 5126, "count" : 56, "type" : "VEC2", "max" : [0.875, 1], "min" : [0.125, 0], "name" : "TEXCOORD_0"}, {"bufferView" : 0, "byteOffset" : 168, "componentType" : 5123, "count" : 84, "type" : "SCALAR", "max" : [55], "min" : [0]}, {"bufferView" : 2, "byteOffset" : 0, "componentType" : 5126, "count" : 56, "type" : "VEC3", "max" : [0.5000001192092896, 0.5, 0.5], "min" : [-0.5, -0.5000004768371582, -0.5], "name" : "POSITION"}, {"bufferView" : 2, "byteOffset" : 12, "componentType" : 5126, "count" : 56, "type" : "VEC3", "max" : [1.0000044107437134, 1.0000044107437134, 1.0000044107437134], "min" : [-1.0000044107437134, -1.0000044107437134, -1.0000044107437134], "name" : "NORMAL"}, {"bufferView" : 2, "byteOffset" : 24, "componentType" : 5126, "count" : 56, "type" : "VEC2", "max" : [0.875, 1], "min" : [0.125, 0], "name" : "TEXCOORD_0"}, {"bufferView" : 0, "byteOffset" : 336, "componentType" : 5123, "count" : 84, "type" : "SCALAR", "max" : [55], "min" : [0]}, {"bufferView" : 3, "byteOffset" : 0, "componentType" : 5126, "count" : 56, "type" : "VEC3", "max" : [0.5000001192092896, 0.5, 0.5], "min" : [-0.5, -0.5000004768371582, -0.5], "name" : "POSITION"}, {"bufferView" : 3, "byteOffset" : 12, "componentType" : 5126, "count" : 56, "type" : "VEC3", "max" : [1.0000044107437134, 1.0000044107437134, 1.0000044107437134], "min" : [-1.0000044107437134, -1.0000044107437134, -1.0000044107437134], "name" : "NORMAL"}, {"bufferView" : 3, "byteOffset" : 24, "componentType" : 5126, "count" : 56, "type" : "VEC2", "max" : [0.875, 1], "min" : [0.125, 0], "name" : "TEXCOORD_0"}], "asset" : {"generator" : "Aspose.3D 25.11.0", "version" : "2.0"}, "buffers" : [{"uri" : "data:application/octet-stream;base64,", "byteLength" : 5896}], "bufferViews" : [{"buffer" : 0, "byteOffset" : 0, "byteLength" : 504, "target" : 34963}, {"buffer" : 0, "byteOffset" : 508, "byteLength" : 1792, "byteStride" : 32, "target" : 34962}, {"buffer" : 0, "byteOffset" : 2304, "byteLength" : 1792, "byteStride" : 32, "target" : 34962}, {"buffer" : 0, "byteOffset" : 4100, "byteLength" : 1792, "byteStride" : 32, "target" : 34962}], "materials" : [{"name" : "openPBR_shader1", "pbrMetallicRoughness" : {"baseColorFactor" : [0, 0, 0, 1], "metallicFactor" : 1, "roughnessFactor" : 1}, "emissiveFactor" : [0, 0, 0], "alphaMode" : "OPAQUE", "doubleSided" : false}], "meshes" : [{"primitives" : [{"attributes" : {"POSITION" : 1, "NORMAL" : 2, "TEXCOORD_0" : 3}, "indices" : 0, "material" : 0, "mode" : 4}], "name" : ""}, {"primitives" : [{"attributes" : {"POSITION" : 5, "NORMAL" : 6, "TEXCOORD_0" : 7}, "indices" : 4, "material" : 0, "mode" : 4}], "name" : ""}, {"primitives" : [{"attributes" : {"POSITION" : 9, "NORMAL" : 10, "TEXCOORD_0" : 11}, "indices" : 8, "material" : 0, "mode" : 4}], "name" : ""}], "nodes" : [{"matrix" : [4.040576221720354, 0, 0, 0, 0, 4.040576221720354, 0, 0, 0, 0, 0.2735099430550509, 0, -6.905250777066321, 9.754762008073692, 2.4685224992138366, 1], "mesh" : 0, "name" : "wINDOW"}, {"matrix" : [2.1051243434173497, 0, 0, 0, 0, 4.040576221720354, 0, 0, 0, 0, 0.2735099430550509, 0, 8.189099547089416, 10.521175260650358, 0.3985948879338713, 1], "mesh" : 1, "name" : "wINDOW1"}, {"matrix" : [2.1051243434173497, 0, 0, 0, 0, 3.320274741439743, 0, 0, 0, 0, 0.2735099430550509, 0, 13.443573441832953, 10.829308899036933, 0.3985948879338713, 1], "mesh" : 2, "name" : "wINDOW2"}], "scene" : 0, "scenes" : [{"nodes" : [0, 1, 2]}]}