{
  "accessors": [
    {
      "bufferView": 2,
      "componentType": 5126,
      "count": 8997,
      "max": [
        1.314453363418579,
        0.9751994013786316,
        2.057565689086914
      ],
      "min": [
        -1.314452886581421,
        -1.1734404563903809,
        -2.5839743614196777
      ],
      "type": "VEC3"
    },
    {
      "bufferView": 2,
      "byteOffset": 107964,
      "componentType": 5126,
      "count": 8997,
      "max": [
        1.0,
        1.0,
        1.0
      ],
      "min": [
        -1.0,
        -1.0,
        -1.0
      ],
      "type": "VEC3"
    },
    {
      "bufferView": 1,
      "componentType": 5126,
      "count": 8997,
      "max": [
        0.9901551008224487,
        0.9922072291374207
      ],
      "min": [
        0.007792741060256958,
        0.007792748976498842
      ],
      "type": "VEC2"
    },
    {
      "bufferView": 1,
      "byteOffset": 71976,
      "componentType": 5126,
      "count": 8997,
      "max": [
        0.9901551008224487,
        0.9922072291374207
      ],
      "min": [
        0.007792741060256958,
        0.007792748976498842
      ],
      "type": "VEC2"
    },
    {
      "bufferView": 0,
      "componentType": 5125,
      "count": 39300,
      "type": "SCALAR"
    }
  ],
  "asset": {
    "extras": {
      "author": "L. (https://sketchfab.com/A2555)",
      "license": "SKETCHFAB Standard (https://sketchfab.com/licenses)",
      "source": "https://sketchfab.com/3d-models/gnome-3ead7adf42a84255b8dcb2c3565cdc0f",
      "title": "Gnome"
    },
    "generator": "Sketchfab-16.72.0",
    "version": "2.0"
  },
  "bufferViews": [
    {
      "buffer": 0,
      "byteLength": 157200,
      "name": "floatBufferViews",
      "target": 34963
    },
    {
      "buffer": 0,
      "byteLength": 143952,
      "byteOffset": 157200,
      "byteStride": 8,
      "name": "floatBufferViews",
      "target": 34962
    },
    {
      "buffer": 0,
      "byteLength": 215928,
      "byteOffset": 301152,
      "byteStride": 12,
      "name": "floatBufferViews",
      "target": 34962
    }
  ],
  "buffers": [
    {
      "byteLength": 517080,
      "uri": "scene.bin"
    }
  ],
  "images": [
    {
      "uri": "textures/Material.023_baseColor.png"
    },
    {
      "uri": "textures/Material.023_metallicRoughness.png"
    }
  ],
  "materials": [
    {
      "doubleSided": true,
      "name": "Material.023",
      "pbrMetallicRoughness": {
        "baseColorTexture": {
          "index": 0
        },
        "metallicFactor": 0.0,
        "metallicRoughnessTexture": {
          "index": 1
        }
      }
    }
  ],
  "meshes": [
    {
      "name": "Gnome_Material.023_0",
      "primitives": [
        {
          "attributes": {
            "NORMAL": 1,
            "POSITION": 0,
            "TEXCOORD_0": 2,
            "TEXCOORD_1": 3
          },
          "indices": 4,
          "material": 0,
          "mode": 4
        }
      ]
    }
  ],
  "nodes": [
    {
      "children": [
        1
      ],
      "matrix": [
        1.0,
        0.0,
        0.0,
        0.0,
        0.0,
        2.220446049250313e-16,
        -1.0,
        0.0,
        0.0,
        1.0,
        2.220446049250313e-16,
        0.0,
        0.0,
        0.0,
        0.0,
        1.0
      ],
      "name": "Sketchfab_model"
    },
    {
      "children": [
        2
      ],
      "matrix": [
        0.009999999776482582,
        0.0,
        0.0,
        0.0,
        0.0,
        0.0,
        0.009999999776482582,
        0.0,
        0.0,
        -0.009999999776482582,
        0.0,
        0.0,
        0.0,
        0.0,
        0.0,
        1.0
      ],
      "name": "0a26e1952505446380b867c153394277.fbx"
    },
    {
      "children": [
        3
      ],
      "name": "RootNode"
    },
    {
      "children": [
        4
      ],
      "matrix": [
        62.92314529418945,
        0.0,
        0.0,
        0.0,
        0.0,
        -1.0254321804131032e-05,
        -62.94057846069253,
        0.0,
        0.0,
        62.92906570434487,
        -1.02524461380452e-05,
        0.0,
        0.0,
        123.22364807128906,
        40.914581298828125,
        1.0
      ],
      "name": "Gnome"
    },
    {
      "mesh": 0,
      "name": "Gnome_Material.023_0"
    }
  ],
  "samplers": [
    {
      "magFilter": 9729,
      "minFilter": 9987,
      "wrapS": 10497,
      "wrapT": 10497
    }
  ],
  "scene": 0,
  "scenes": [
    {
      "name": "Sketchfab_Scene",
      "nodes": [
        0
      ]
    }
  ],
  "textures": [
    {
      "sampler": 0,
      "source": 0
    },
    {
      "sampler": 0,
      "source": 1
    }
  ]
}
