{
  "accessors": [
    {
      "bufferView": 2,
      "componentType": 5126,
      "count": 96,
      "max": [
        1.0,
        1.0,
        1.0
      ],
      "min": [
        -1.0,
        -1.0,
        -1.0
      ],
      "type": "VEC3"
    },
    {
      "bufferView": 2,
      "byteOffset": 1152,
      "componentType": 5126,
      "count": 96,
      "max": [
        1.0,
        1.0,
        1.0
      ],
      "min": [
        -1.0,
        -1.0,
        -1.0
      ],
      "type": "VEC3"
    },
    {
      "bufferView": 1,
      "componentType": 5126,
      "count": 96,
      "max": [
        0.47851988673210144,
        0.6198885440826416
      ],
      "min": [
        0.39651215076446533,
        0.5050793886184692
      ],
      "type": "VEC2"
    },
    {
      "bufferView": 0,
      "componentType": 5125,
      "count": 132,
      "type": "SCALAR"
    },
    {
      "bufferView": 2,
      "byteOffset": 2304,
      "componentType": 5126,
      "count": 3081,
      "max": [
        1.0,
        1.823341965675354,
        1.0
      ],
      "min": [
        -0.9999999403953552,
        -8.248957633972168,
        -1.0
      ],
      "type": "VEC3"
    },
    {
      "bufferView": 2,
      "byteOffset": 39276,
      "componentType": 5126,
      "count": 3081,
      "max": [
        0.9971945285797119,
        0.9865822792053223,
        0.9971944689750671
      ],
      "min": [
        -0.9971945285797119,
        -0.98658287525177,
        -0.9971945285797119
      ],
      "type": "VEC3"
    },
    {
      "bufferView": 1,
      "byteOffset": 768,
      "componentType": 5126,
      "count": 3081,
      "max": [
        0.5220605134963989,
        0.5164365768432617
      ],
      "min": [
        0.4903509318828583,
        0.48431849479675293
      ],
      "type": "VEC2"
    },
    {
      "bufferView": 0,
      "byteOffset": 528,
      "componentType": 5125,
      "count": 15516,
      "type": "SCALAR"
    },
    {
      "bufferView": 2,
      "byteOffset": 76248,
      "componentType": 5126,
      "count": 445,
      "max": [
        1.0,
        1.0,
        1.0
      ],
      "min": [
        -1.0,
        -0.9183107614517212,
        -1.0
      ],
      "type": "VEC3"
    },
    {
      "bufferView": 2,
      "byteOffset": 81588,
      "componentType": 5126,
      "count": 445,
      "max": [
        0.9120275378227234,
        0.9120275378227234,
        0.9120275378227234
      ],
      "min": [
        -0.9120290279388428,
        -0.9999625086784363,
        -0.9120290279388428
      ],
      "type": "VEC3"
    },
    {
      "bufferView": 1,
      "byteOffset": 25416,
      "componentType": 5126,
      "count": 445,
      "max": [
        0.9960708618164063,
        0.9977011680603027
      ],
      "min": [
        0.0039288559928536415,
        0.002298891544342041
      ],
      "type": "VEC2"
    },
    {
      "bufferView": 0,
      "byteOffset": 62592,
      "componentType": 5125,
      "count": 2292,
      "type": "SCALAR"
    },
    {
      "bufferView": 2,
      "byteOffset": 86928,
      "componentType": 5126,
      "count": 24,
      "max": [
        1.0,
        1.0,
        1.0
      ],
      "min": [
        -1.0,
        -1.0,
        -1.0
      ],
      "type": "VEC3"
    },
    {
      "bufferView": 2,
      "byteOffset": 87216,
      "componentType": 5126,
      "count": 24,
      "max": [
        1.0,
        1.0,
        1.0
      ],
      "min": [
        -1.0,
        -1.0,
        -1.0
      ],
      "type": "VEC3"
    },
    {
      "bufferView": 1,
      "byteOffset": 28976,
      "componentType": 5126,
      "count": 24,
      "max": [
        0.875,
        1.0
      ],
      "min": [
        0.125,
        0.0
      ],
      "type": "VEC2"
    },
    {
      "bufferView": 0,
      "byteOffset": 71760,
      "componentType": 5125,
      "count": 36,
      "type": "SCALAR"
    },
    {
      "bufferView": 2,
      "byteOffset": 87504,
      "componentType": 5126,
      "count": 24,
      "max": [
        1.0,
        1.0,
        1.0
      ],
      "min": [
        -1.0,
        -1.0,
        -1.0
      ],
      "type": "VEC3"
    },
    {
      "bufferView": 2,
      "byteOffset": 87792,
      "componentType": 5126,
      "count": 24,
      "max": [
        1.0,
        1.0,
        1.0
      ],
      "min": [
        -1.0,
        -1.0,
        -1.0
      ],
      "type": "VEC3"
    },
    {
      "bufferView": 1,
      "byteOffset": 29168,
      "componentType": 5126,
      "count": 24,
      "max": [
        0.875,
        1.0
      ],
      "min": [
        0.125,
        0.0
      ],
      "type": "VEC2"
    },
    {
      "bufferView": 0,
      "byteOffset": 71904,
      "componentType": 5125,
      "count": 36,
      "type": "SCALAR"
    },
    {
      "bufferView": 2,
      "byteOffset": 88080,
      "componentType": 5126,
      "count": 24,
      "max": [
        1.0,
        1.0,
        1.0
      ],
      "min": [
        -1.0,
        -1.0,
        -1.0
      ],
      "type": "VEC3"
    },
    {
      "bufferView": 2,
      "byteOffset": 88368,
      "componentType": 5126,
      "count": 24,
      "max": [
        1.0,
        1.0,
        1.0
      ],
      "min": [
        -1.0,
        -1.0,
        -1.0
      ],
      "type": "VEC3"
    },
    {
      "bufferView": 1,
      "byteOffset": 29360,
      "componentType": 5126,
      "count": 24,
      "max": [
        0.875,
        1.0
      ],
      "min": [
        0.125,
        0.0
      ],
      "type": "VEC2"
    },
    {
      "bufferView": 0,
      "byteOffset": 72048,
      "componentType": 5125,
      "count": 36,
      "type": "SCALAR"
    },
    {
      "bufferView": 2,
      "byteOffset": 88656,
      "componentType": 5126,
      "count": 24,
      "max": [
        1.3867489099502563,
        2.722135066986084,
        1.3867489099502563
      ],
      "min": [
        -1.3867489099502563,
        -9.62784194946289,
        -1.3867489099502563
      ],
      "type": "VEC3"
    },
    {
      "bufferView": 2,
      "byteOffset": 88944,
      "componentType": 5126,
      "count": 24,
      "max": [
        0.9938035607337952,
        1.0,
        0.9938036203384399
      ],
      "min": [
        -0.9938035607337952,
        -1.0,
        -0.9938036203384399
      ],
      "type": "VEC3"
    },
    {
      "bufferView": 1,
      "byteOffset": 29552,
      "componentType": 5126,
      "count": 24,
      "max": [
        0.875,
        1.0
      ],
      "min": [
        0.125,
        0.0
      ],
      "type": "VEC2"
    },
    {
      "bufferView": 0,
      "byteOffset": 72192,
      "componentType": 5125,
      "count": 36,
      "type": "SCALAR"
    },
    {
      "bufferView": 2,
      "byteOffset": 89232,
      "componentType": 5126,
      "count": 1004,
      "max": [
        1.0,
        1.0,
        1.0
      ],
      "min": [
        -1.0,
        -1.4447895288467407,
        -1.0
      ],
      "type": "VEC3"
    },
    {
      "bufferView": 2,
      "byteOffset": 101280,
      "componentType": 5126,
      "count": 1004,
      "max": [
        1.0,
        1.0,
        1.0
      ],
      "min": [
        -1.0,
        -1.0,
        -1.0
      ],
      "type": "VEC3"
    },
    {
      "bufferView": 1,
      "byteOffset": 29744,
      "componentType": 5126,
      "count": 1004,
      "max": [
        1.005979061126709,
        0.9920399188995361
      ],
      "min": [
        -0.006130814552307129,
        0.007960081100463867
      ],
      "type": "VEC2"
    },
    {
      "bufferView": 0,
      "byteOffset": 72336,
      "componentType": 5125,
      "count": 1572,
      "type": "SCALAR"
    }
  ],
  "asset": {
    "extras": {
      "author": "Kroko.blend (https://sketchfab.com/jaromir.ternavskiy)",
      "license": "CC-BY-4.0 (http://creativecommons.org/licenses/by/4.0/)",
      "source": "https://sketchfab.com/3d-models/scepter-bc3d6e49440a42fba65fda4a6c9e26dd",
      "title": "Scepter"
    },
    "generator": "Sketchfab-15.58.0",
    "version": "2.0"
  },
  "bufferViews": [
    {
      "buffer": 0,
      "byteLength": 78624,
      "name": "floatBufferViews",
      "target": 34963
    },
    {
      "buffer": 0,
      "byteLength": 37776,
      "byteOffset": 78624,
      "byteStride": 8,
      "name": "floatBufferViews",
      "target": 34962
    },
    {
      "buffer": 0,
      "byteLength": 113328,
      "byteOffset": 116400,
      "byteStride": 12,
      "name": "floatBufferViews",
      "target": 34962
    }
  ],
  "buffers": [
    {
      "byteLength": 229728,
      "uri": "scene.bin"
    }
  ],
  "extensionsUsed": [
    "KHR_materials_specular"
  ],
  "images": [
    {
      "uri": "textures/Material.003_baseColor.jpeg"
    },
    {
      "uri": "textures/Material_baseColor.png"
    },
    {
      "uri": "textures/Material.001_baseColor.jpeg"
    },
    {
      "uri": "textures/Material.002_baseColor.jpeg"
    }
  ],
  "materials": [
    {
      "doubleSided": true,
      "name": "material_0",
      "pbrMetallicRoughness": {
        "metallicFactor": 0.0,
        "roughnessFactor": 0.6
      }
    },
    {
      "doubleSided": true,
      "name": "Material.003",
      "pbrMetallicRoughness": {
        "baseColorTexture": {
          "index": 0
        },
        "metallicFactor": 0.979275,
        "roughnessFactor": 0.132124
      }
    },
    {
      "doubleSided": true,
      "name": "Material",
      "pbrMetallicRoughness": {
        "baseColorTexture": {
          "index": 1
        },
        "roughnessFactor": 0.38247735612146627
      }
    },
    {
      "doubleSided": true,
      "extensions": {
        "KHR_materials_specular": {
          "specularColorFactor": [
            1.0,
            1.0,
            1.0
          ],
          "specularFactor": 1.0
        }
      },
      "name": "Material.001",
      "pbrMetallicRoughness": {
        "baseColorTexture": {
          "index": 2
        },
        "metallicFactor": 0.642487,
        "roughnessFactor": 0.108808
      }
    },
    {
      "doubleSided": true,
      "name": "Material.002",
      "pbrMetallicRoughness": {
        "baseColorTexture": {
          "index": 3
        },
        "metallicFactor": 0.341969,
        "roughnessFactor": 0.84715
      }
    }
  ],
  "meshes": [
    {
      "name": "Object_0",
      "primitives": [
        {
          "attributes": {
            "NORMAL": 1,
            "POSITION": 0,
            "TEXCOORD_0": 2
          },
          "indices": 3,
          "material": 1,
          "mode": 4
        }
      ]
    },
    {
      "name": "Object_1",
      "primitives": [
        {
          "attributes": {
            "NORMAL": 5,
            "POSITION": 4,
            "TEXCOORD_0": 6
          },
          "indices": 7,
          "material": 2,
          "mode": 4
        }
      ]
    },
    {
      "name": "Object_2",
      "primitives": [
        {
          "attributes": {
            "NORMAL": 9,
            "POSITION": 8,
            "TEXCOORD_0": 10
          },
          "indices": 11,
          "material": 3,
          "mode": 4
        }
      ]
    },
    {
      "name": "Object_3",
      "primitives": [
        {
          "attributes": {
            "NORMAL": 13,
            "POSITION": 12,
            "TEXCOORD_0": 14
          },
          "indices": 15,
          "material": 3,
          "mode": 4
        }
      ]
    },
    {
      "name": "Object_4",
      "primitives": [
        {
          "attributes": {
            "NORMAL": 17,
            "POSITION": 16,
            "TEXCOORD_0": 18
          },
          "indices": 19,
          "material": 3,
          "mode": 4
        }
      ]
    },
    {
      "name": "Object_5",
      "primitives": [
        {
          "attributes": {
            "NORMAL": 21,
            "POSITION": 20,
            "TEXCOORD_0": 22
          },
          "indices": 23,
          "material": 3,
          "mode": 4
        }
      ]
    },
    {
      "name": "Object_6",
      "primitives": [
        {
          "attributes": {
            "NORMAL": 25,
            "POSITION": 24,
            "TEXCOORD_0": 26
          },
          "indices": 27,
          "material": 0,
          "mode": 4
        }
      ]
    },
    {
      "name": "Object_7",
      "primitives": [
        {
          "attributes": {
            "NORMAL": 29,
            "POSITION": 28,
            "TEXCOORD_0": 30
          },
          "indices": 31,
          "material": 4,
          "mode": 4
        }
      ]
    }
  ],
  "nodes": [
    {
      "children": [
        1
      ],
      "matrix": [
        1.0,
        0.0,
        0.0,
        0.0,
        0.0,
        2.220446049250313e-16,
        -1.0,
        0.0,
        0.0,
        1.0,
        2.220446049250313e-16,
        0.0,
        0.0,
        0.0,
        0.0,
        1.0
      ],
      "name": "Sketchfab_model"
    },
    {
      "children": [
        2
      ],
      "name": "root"
    },
    {
      "children": [
        3,
        5,
        7,
        9,
        11,
        13,
        15,
        17
      ],
      "matrix": [
        1.0,
        0.0,
        0.0,
        0.0,
        0.0,
        2.220446049250313e-16,
        1.0,
        0.0,
        0.0,
        -1.0,
        2.220446049250313e-16,
        0.0,
        0.0,
        0.0,
        0.0,
        1.0
      ],
      "name": "GLTF_SceneRootNode"
    },
    {
      "children": [
        4
      ],
      "matrix": [
        1.0553584765474056,
        0.0,
        0.6324918551580286,
        0.0,
        0.0,
        1.2303770780563354,
        0.0,
        0.0,
        -0.6324918551580286,
        0.0,
        1.0553584765474056,
        0.0,
        0.013380195945501328,
        9.873682975769043,
        -0.01776527240872383,
        1.0
      ],
      "name": "Cube_0"
    },
    {
      "mesh": 0,
      "name": "Object_4"
    },
    {
      "children": [
        6
      ],
      "matrix": [
        0.7266306281089783,
        0.0,
        0.0,
        0.0,
        0.0,
        0.09655571728944778,
        0.0,
        0.0,
        0.0,
        0.0,
        0.7266306281089783,
        0.0,
        0.0,
        9.086219787597656,
        0.0,
        1.0
      ],
      "name": "Cube.001_1"
    },
    {
      "mesh": 1,
      "name": "Object_6"
    },
    {
      "children": [
        8
      ],
      "matrix": [
        0.24005988240242004,
        0.0,
        0.0,
        0.0,
        0.0,
        3.8482019901275635,
        0.0,
        0.0,
        0.0,
        0.0,
        0.24005988240242004,
        0.0,
        0.0,
        5.364384651184082,
        0.0,
        1.0
      ],
      "name": "Cube.002_2"
    },
    {
      "mesh": 2,
      "name": "Object_8"
    },
    {
      "children": [
        10
      ],
      "matrix": [
        0.14843295783505359,
        0.0,
        0.14843296365791617,
        0.0,
        -0.0,
        0.04493550583720207,
        0.0,
        0.0,
        -0.14843296365791617,
        0.0,
        0.14843295783505359,
        0.0,
        0.0,
        8.023045539855957,
        0.0,
        1.0
      ],
      "name": "Cube.003_3"
    },
    {
      "mesh": 3,
      "name": "Object_10"
    },
    {
      "children": [
        12
      ],
      "matrix": [
        0.16052175903221194,
        0.0,
        0.16052176532930496,
        0.0,
        -0.0,
        0.048595182597637177,
        0.0,
        0.0,
        -0.16052176532930496,
        0.0,
        0.16052175903221194,
        0.0,
        0.0,
        8.13430404663086,
        0.0,
        1.0
      ],
      "name": "Cube.004_4"
    },
    {
      "mesh": 4,
      "name": "Object_12"
    },
    {
      "children": [
        14
      ],
      "matrix": [
        0.181934349094342,
        0.0,
        0.18193435623142748,
        0.0,
        -0.0,
        0.05507747456431389,
        0.0,
        0.0,
        -0.18193435623142748,
        0.0,
        0.181934349094342,
        0.0,
        0.0,
        8.248021125793457,
        0.0,
        1.0
      ],
      "name": "Cube.005_5"
    },
    {
      "mesh": 5,
      "name": "Object_14"
    },
    {
      "children": [
        16
      ],
      "matrix": [
        0.09581708908081055,
        0.0,
        0.0,
        0.0,
        0.0,
        0.09581708908081055,
        0.0,
        0.0,
        0.0,
        0.0,
        0.09581708908081055,
        0.0,
        0.0,
        1.798719882965088,
        0.0,
        1.0
      ],
      "name": "Cube.006_6"
    },
    {
      "mesh": 6,
      "name": "Object_16"
    },
    {
      "children": [
        18
      ],
      "matrix": [
        0.32885441184043884,
        0.0,
        0.0,
        0.0,
        0.0,
        0.8324337005615234,
        0.0,
        0.0,
        0.0,
        0.0,
        0.32885441184043884,
        0.0,
        0.0,
        1.9792823791503906,
        0.0,
        1.0
      ],
      "name": "Cube.007_7"
    },
    {
      "mesh": 7,
      "name": "Object_18"
    }
  ],
  "samplers": [
    {
      "magFilter": 9729,
      "minFilter": 9987,
      "wrapS": 10497,
      "wrapT": 10497
    }
  ],
  "scene": 0,
  "scenes": [
    {
      "name": "Sketchfab_Scene",
      "nodes": [
        0
      ]
    }
  ],
  "textures": [
    {
      "sampler": 0,
      "source": 0
    },
    {
      "sampler": 0,
      "source": 1
    },
    {
      "sampler": 0,
      "source": 2
    },
    {
      "sampler": 0,
      "source": 3
    }
  ]
}
