{
  "asset": {
    "version": "2.0",
    "generator": "gltfeditor.com"
  },
  "buffers": [
    {
      "uri": "yourMesh.obj.bin",
      "byteLength": 136800
    }
  ],
  "bufferViews": [
    {
      "buffer": 0,
      "byteOffset": 0,
      "byteLength": 136800,
      "byteStride": 20,
      "target": 34962
    }
  ],
  "accessors": [
    {
      "bufferView": 0,
      "byteOffset": 0,
      "componentType": 5126,
      "normalized": false,
      "count": 6840,
      "min": [
        -11.460705757141113,
        0,
        0.10199999809265137
      ],
      "max": [
        18.601354598999023,
        14.629960060119629,
        1.324607014656067
      ],
      "type": "VEC3"
    },
    {
      "bufferView": 0,
      "byteOffset": 12,
      "componentType": 5126,
      "normalized": false,
      "count": 6840,
      "min": [
        0,
        0
      ],
      "max": [
        0.875,
        1
      ],
      "type": "VEC2"
    }
  ],
  "scene": 0,
  "scenes": [
    {
      "nodes": [
        1
      ],
      "name": "yourMesh.obj"
    }
  ],
  "nodes": [
    {
      "mesh": 0
    },
    {
      "name": "yourMesh.obj",
      "children": [
        0
      ]
    }
  ],
  "meshes": [
    {
      "primitives": [
        {
          "material": 0,
          "mode": 4,
          "attributes": {
            "POSITION": 0,
            "TEXCOORD_0": 1
          }
        }
      ]
    }
  ],
  "materials": [
    {
      "name": "",
      "pbrMetallicRoughness": {
        "baseColorFactor": [
          0.5882352941176471,
          0.29411764705882354,
          0,
          1
        ],
        "metallicFactor": 0,
        "roughnessFactor": 0.75,
        "baseColorTexture": {
          "index": 0,
          "texCoord": 0
        },
        "metallicRoughnessTexture": {
          "index": 1,
          "texCoord": 0
        }
      },
      "emissiveFactor": [
        0.12156862745098039,
        0.07058823529411765,
        0
      ],
      "alphaMode": "OPAQUE",
      "doubleSided": false
    }
  ],
  "textures": [
    {
      "sampler": 0,
      "name": "base.jpg",
      "source": 0
    },
    {
      "sampler": 1,
      "name": "metallicRoughness.jpg",
      "source": 1
    }
  ],
  "samplers": [
    {
      "magFilter": 9729,
      "minFilter": 9987,
      "wrapS": 33071,
      "wrapT": 33071
    },
    {
      "magFilter": 9729,
      "minFilter": 9987,
      "wrapS": 33071,
      "wrapT": 33071
    }
  ],
  "images": [
    {
      "uri": "base.jpg",
      "mimeType": "image/jpeg",
      "name": "base.jpg"
    },
    {
      "uri": "metallicRoughness.jpg",
      "mimeType": "image/jpeg",
      "name": "metallicRoughness.jpg"
    }
  ],
  "extensions": {}
}