{
  "accessors": [
    {
      "bufferView": 3,
      "componentType": 5126,
      "count": 8004,
      "max": [
        2.733603000640869,
        8.424230575561523,
        1.5800520181655884
      ],
      "min": [
        -2.733603000640869,
        -0.35962963104248047,
        -11.074850082397461
      ],
      "type": "VEC3"
    },
    {
      "bufferView": 3,
      "byteOffset": 96048,
      "componentType": 5126,
      "count": 8004,
      "max": [
        0.9996947050094604,
        1.0,
        0.998949408531189
      ],
      "min": [
        -0.9996007680892944,
        -0.9995973110198975,
        -0.9973774552345276
      ],
      "type": "VEC3"
    },
    {
      "bufferView": 2,
      "componentType": 5126,
      "count": 8004,
      "max": [
        1.0097659826278687,
        1.0006229877471924
      ],
      "min": [
        0.010986200533807278,
        0.007324158679693937
      ],
      "type": "VEC2"
    },
    {
      "bufferView": 1,
      "componentType": 5125,
      "count": 8832,
      "type": "SCALAR"
    },
    {
      "bufferView": 5,
      "componentType": 5126,
      "count": 12,
      "max": [
        100.0,
        2.3447019259492663e-07,
        0.0,
        0.0,
        0.9999635815620422,
        100.0,
        0.0,
        0.0,
        0.7516081929206848,
        1.0,
        100.0,
        0.0,
        0.4348282516002655,
        3.813778877258301,
        7.328388214111328,
        1.0
      ],
      "min": [
        -1.1196928539902729e-07,
        -1.0000001192092896,
        -6.729889037160319e-07,
        0.0,
        -6.729889037160319e-07,
        -1.0675650230496103e-07,
        -1.0,
        0.0,
        -2.3447000785381533e-07,
        -1.5849659007471928e-07,
        1.9282543917142903e-07,
        0.0,
        -5.024770736694336,
        -0.017383543774485588,
        0.0,
        1.0
      ],
      "type": "MAT4"
    },
    {
      "bufferView": 0,
      "componentType": 5123,
      "count": 8004,
      "type": "VEC4"
    },
    {
      "bufferView": 4,
      "componentType": 5126,
      "count": 8004,
      "max": [
        1.0,
        0.4941176176071167,
        0.3215686082839966,
        0.039215683937072754
      ],
      "min": [
        0.35294121503829956,
        0.0,
        0.0,
        0.0
      ],
      "type": "VEC4"
    }
  ],
  "asset": {
    "extras": {
      "author": "dinoguy263allo (https://sketchfab.com/dinoguy263allo)",
      "license": "CC-BY-4.0 (http://creativecommons.org/licenses/by/4.0/)",
      "source": "https://sketchfab.com/3d-models/nessie-goat-simulator-2d6830038fb94915b9131012ce6ea0e5",
      "title": "Nessie [Goat Simulator]"
    },
    "generator": "Sketchfab-16.75.0",
    "version": "2.0"
  },
  "bufferViews": [
    {
      "buffer": 0,
      "byteLength": 64032,
      "byteStride": 8,
      "name": "shortBufferViews",
      "target": 34962
    },
    {
      "buffer": 0,
      "byteLength": 35328,
      "byteOffset": 64032,
      "name": "floatBufferViews",
      "target": 34963
    },
    {
      "buffer": 0,
      "byteLength": 64032,
      "byteOffset": 99360,
      "byteStride": 8,
      "name": "floatBufferViews",
      "target": 34962
    },
    {
      "buffer": 0,
      "byteLength": 192096,
      "byteOffset": 163392,
      "byteStride": 12,
      "name": "floatBufferViews",
      "target": 34962
    },
    {
      "buffer": 0,
      "byteLength": 128064,
      "byteOffset": 355488,
      "byteStride": 16,
      "name": "floatBufferViews",
      "target": 34962
    },
    {
      "buffer": 0,
      "byteLength": 768,
      "byteOffset": 483552,
      "name": "floatBufferViews"
    }
  ],
  "buffers": [
    {
      "byteLength": 484320,
      "uri": "scene.bin"
    }
  ],
  "images": [
    {
      "uri": "textures/Nessie_INST.003_baseColor.png"
    }
  ],
  "materials": [
    {
      "doubleSided": true,
      "name": "Nessie_INST.003",
      "pbrMetallicRoughness": {
        "baseColorTexture": {
          "index": 0
        },
        "metallicFactor": 0.0
      }
    }
  ],
  "meshes": [
    {
      "name": "nessie.001_Nessie_INST.003_0",
      "primitives": [
        {
          "attributes": {
            "JOINTS_0": 5,
            "NORMAL": 1,
            "POSITION": 0,
            "TEXCOORD_0": 2,
            "WEIGHTS_0": 6
          },
          "indices": 3,
          "material": 0,
          "mode": 4
        }
      ]
    }
  ],
  "nodes": [
    {
      "children": [
        1
      ],
      "matrix": [
        1.0,
        0.0,
        0.0,
        0.0,
        0.0,
        2.220446049250313e-16,
        -1.0,
        0.0,
        0.0,
        1.0,
        2.220446049250313e-16,
        0.0,
        0.0,
        0.0,
        0.0,
        1.0
      ],
      "name": "Sketchfab_model"
    },
    {
      "children": [
        2
      ],
      "matrix": [
        0.009999999776482582,
        0.0,
        0.0,
        0.0,
        0.0,
        0.0,
        0.009999999776482582,
        0.0,
        0.0,
        -0.009999999776482582,
        0.0,
        0.0,
        0.0,
        0.0,
        0.0,
        1.0
      ],
      "name": "Nessie.fbx"
    },
    {
      "children": [
        3
      ],
      "name": "RootNode"
    },
    {
      "children": [
        4
      ],
      "matrix": [
        100.0,
        0.0,
        0.0,
        0.0,
        0.0,
        -1.629206793918314e-05,
        -99.99999999999868,
        0.0,
        0.0,
        99.99999999999868,
        -1.629206793918314e-05,
        0.0,
        0.0,
        344.65472412109375,
        0.0,
        1.0
      ],
      "name": "nessie"
    },
    {
      "children": [
        5,
        18,
        17
      ],
      "name": "Object_4"
    },
    {
      "children": [
        6
      ],
      "name": "_rootJoint"
    },
    {
      "children": [
        7
      ],
      "name": "Root_00",
      "rotation": [
        1.0,
        4.989130785479183e-15,
        -3.1391647326017846e-07,
        3.1391647326017846e-07
      ]
    },
    {
      "children": [
        8
      ],
      "name": "Body_01",
      "rotation": [
        2.016105895563669e-07,
        -1.8917434816567345e-20,
        3.3881317890172014e-21,
        1.0
      ],
      "translation": [
        9.579873676557327e-07,
        -3.8137803077697754,
        1.5258620977401733
      ]
    },
    {
      "children": [
        9
      ],
      "name": "Neck_01_02",
      "rotation": [
        -0.35626041889190674,
        0.35626065731048584,
        0.6108016967773438,
        0.6108012199401855
      ],
      "translation": [
        -8.977452239378181e-07,
        2.0256881713867188,
        -0.4235713481903076
      ]
    },
    {
      "children": [
        10
      ],
      "name": "Neck_02_03",
      "rotation": [
        1.7488087868566989e-15,
        0.2504127025604248,
        -3.1535904835048537e-16,
        0.9681391716003418
      ],
      "scale": [
        0.9999999403953552,
        1.0,
        0.9999999403953552
      ],
      "translation": [
        1.4317148923873901,
        -4.768372150465439e-07,
        -3.054737760521675e-07
      ]
    },
    {
      "children": [
        11
      ],
      "name": "Neck_03_04",
      "rotation": [
        -3.679088322883217e-08,
        -0.012367174960672855,
        3.989630315004433e-08,
        0.9999235272407532
      ],
      "scale": [
        0.9999999403953552,
        1.0,
        0.9999999403953552
      ],
      "translation": [
        1.472792625427246,
        -8.344650268554688e-07,
        2.1234150437976496e-07
      ]
    },
    {
      "children": [
        12
      ],
      "name": "Neck_04_05",
      "rotation": [
        -2.4694720934803627e-08,
        -0.39733830094337463,
        -6.845888123052646e-08,
        0.9176722168922424
      ],
      "scale": [
        1.0,
        0.9999999403953552,
        1.0
      ],
      "translation": [
        1.5113416910171509,
        9.5367431640625e-07,
        3.799796957082435e-07
      ]
    },
    {
      "children": [
        13,
        15
      ],
      "name": "Head_06",
      "rotation": [
        0.2491944134235382,
        -0.24919477105140686,
        -0.6617417931556702,
        0.6617416143417358
      ],
      "scale": [
        1.0,
        1.0000001192092896,
        1.0000001192092896
      ],
      "translation": [
        0.8206063508987427,
        -8.344650268554688e-07,
        -9.238719940185547e-07
      ]
    },
    {
      "children": [
        14
      ],
      "name": "Eye_L_07",
      "rotation": [
        -2.341608862366229e-08,
        3.466746445468516e-09,
        -1.1708043246017041e-07,
        1.0
      ],
      "translation": [
        0.43482327461242676,
        0.4210098385810852,
        -0.20449285209178925
      ]
    },
    {
      "name": "Eye_L_end_09",
      "rotation": [
        0.0,
        -1.2710831199937124e-22,
        0.0,
        1.0
      ],
      "translation": [
        -5.551115123125783e-17,
        0.6363642811775208,
        0.0
      ]
    },
    {
      "children": [
        16
      ],
      "name": "Eye_R_08",
      "rotation": [
        -2.341608862366229e-08,
        3.466746445468516e-09,
        -1.1708043246017041e-07,
        1.0
      ],
      "translation": [
        -0.4348236322402954,
        0.41272398829460144,
        -0.21341794729232788
      ]
    },
    {
      "name": "Eye_R_end_010",
      "rotation": [
        0.0,
        -1.2710831199937124e-22,
        0.0,
        1.0
      ],
      "translation": [
        -5.551115123125783e-17,
        0.6363642811775208,
        -1.7763568394002505e-15
      ]
    },
    {
      "matrix": [
        100.00000000003942,
        -3.4105939779186314e-12,
        -6.052970646563441e-19,
        0.0,
        -6.052971038272896e-19,
        -1.1485087116148341e-12,
        -100.00000000003553,
        0.0,
        3.410593977919843e-12,
        100.00000000007495,
        -1.148508711615287e-12,
        0.0,
        2.2737367544323206e-11,
        344.65472412109375,
        4.254362755028104e-24,
        1.0
      ],
      "name": "Object_17"
    },
    {
      "mesh": 0,
      "name": "Object_18",
      "skin": 0
    }
  ],
  "samplers": [
    {
      "magFilter": 9729,
      "minFilter": 9987,
      "wrapS": 10497,
      "wrapT": 10497
    }
  ],
  "scene": 0,
  "scenes": [
    {
      "name": "Sketchfab_Scene",
      "nodes": [
        0
      ]
    }
  ],
  "skins": [
    {
      "inverseBindMatrices": 4,
      "joints": [
        5,
        6,
        7,
        8,
        9,
        10,
        11,
        12,
        13,
        14,
        15,
        16
      ],
      "skeleton": 5
    }
  ],
  "textures": [
    {
      "sampler": 0,
      "source": 0
    }
  ]
}
