# This file uses centimeters as units for non-parametric coordinates.

mtllib Sign_Board.mtl
g default
v -190.009534 1.185092 46.454326
v -186.951309 1.185092 46.454326
v -188.480439 5.466913 46.454326
v -188.480392 5.466913 46.454326
v -188.480439 5.466913 43.396110
v -188.480392 5.466913 43.396110
v -190.009534 1.185092 43.396110
v -186.951309 1.185092 43.396110
v -188.611882 5.653421 46.454326
v -188.348973 5.653421 46.454326
v -188.348973 5.653421 43.396110
v -188.611882 5.653421 43.396110
v -186.688436 1.278970 43.396110
v -186.688436 1.278970 46.454326
v -190.272419 1.278970 43.396110
v -190.272419 1.278970 46.454326
v -186.828325 1.449714 43.515484
v -186.828325 1.449714 46.334966
v -188.359239 5.482679 43.515484
v -188.359239 5.482679 46.334966
v -190.132507 1.449714 43.515484
v -190.132507 1.449714 46.334966
v -188.601592 5.482679 46.334966
v -188.601592 5.482679 43.515484
v -186.688436 1.278970 46.330834
v -186.951309 1.185092 46.320159
v -186.688436 1.278970 43.527278
v -186.951309 1.185092 43.519932
v -186.395918 0.459854 43.527278
v -186.658780 0.365977 43.519932
v -186.658780 0.365977 43.396110
v -186.395918 0.459854 43.396110
v -186.658769 0.365986 46.320159
v -186.658769 0.365986 46.454326
v -186.395872 0.459864 46.330834
v -186.395872 0.459864 46.454326
v -190.272419 1.278970 46.337953
v -190.009534 1.185092 46.338726
v -190.272419 1.278970 43.520929
v -190.009534 1.185093 43.524951
v -190.569836 0.446108 46.337953
v -190.306963 0.352230 46.338726
v -190.306963 0.352230 46.454326
v -190.569836 0.446108 46.454326
v -190.306963 0.352230 43.396110
v -190.306963 0.352230 43.524951
v -190.569836 0.446108 43.520929
v -190.569836 0.446108 43.396110
vt 0.375000 0.000000
vt 0.625000 0.000000
vt 0.375000 0.250000
vt 0.625000 0.250000
vt 0.375000 0.500000
vt 0.625000 0.500000
vt 0.875000 0.000000
vt 0.875000 0.250000
vt 0.125000 0.000000
vt 0.125000 0.250000
vt 0.375000 0.250000
vt 0.625000 0.250000
vt 0.625000 0.500000
vt 0.375000 0.500000
vt 0.625000 0.000000
vt 0.875000 0.000000
vt 0.875000 0.250000
vt 0.125000 0.000000
vt 0.375000 0.000000
vt 0.125000 0.250000
vt 0.625000 0.000000
vt 0.875000 0.000000
vt 0.875000 0.250000
vt 0.625000 0.250000
vt 0.125000 0.000000
vt 0.375000 0.000000
vt 0.375000 0.250000
vt 0.125000 0.250000
vt 0.635096 0.000000
vt 0.635968 0.000000
vt 0.864277 0.000000
vt 0.864878 0.000000
vt 0.864277 0.000000
vt 0.864878 0.000000
vt 0.875000 0.000000
vt 0.875000 0.000000
vt 0.625000 0.000000
vt 0.635968 0.000000
vt 0.635096 0.000000
vt 0.625000 0.000000
vt 0.365487 0.000000
vt 0.365550 0.000000
vt 0.135203 0.000000
vt 0.135532 0.000000
vt 0.365487 0.000000
vt 0.365550 0.000000
vt 0.375000 0.000000
vt 0.375000 0.000000
vt 0.125000 0.000000
vt 0.135532 0.000000
vt 0.135203 0.000000
vt 0.125000 0.000000
vn 0.000000 1.000000 0.000000
vn 0.000000 1.000000 0.000000
vn 0.000000 1.000000 0.000000
vn 0.000000 1.000000 0.000000
vn 0.934908 0.354891 0.000000
vn 0.934908 0.354891 0.000000
vn 0.934908 0.354891 0.000000
vn 0.934908 0.354891 0.000000
vn -0.934908 0.354891 0.000000
vn -0.934908 0.354891 0.000000
vn -0.934908 0.354891 0.000000
vn -0.934908 0.354891 0.000000
vn 0.000001 0.000000 1.000000
vn -0.000000 0.000000 1.000000
vn -0.000000 0.000000 1.000000
vn 0.000001 0.000000 1.000000
vn -0.000000 0.000000 -1.000000
vn 0.000000 0.000000 -1.000000
vn 0.000000 0.000000 -1.000000
vn -0.000000 0.000000 -1.000000
vn 0.336332 -0.941743 0.000000
vn 0.336332 -0.941743 0.000000
vn 0.336332 -0.941743 0.000000
vn 0.336332 -0.941743 0.000000
vn -0.000000 0.000000 -1.000000
vn -0.000000 0.000000 -1.000000
vn -0.000000 0.000000 1.000000
vn -0.000000 0.000000 1.000000
vn -0.336319 -0.941748 0.000000
vn -0.336319 -0.941748 0.000000
vn -0.336319 -0.941748 0.000000
vn -0.336319 -0.941748 0.000000
vn 0.000000 0.000000 1.000000
vn 0.000000 0.000000 1.000000
vn 0.000000 0.000000 -1.000000
vn 0.000000 0.000000 -1.000000
vn -0.941752 -0.336309 0.000000
vn -0.941752 -0.336309 0.000000
vn -0.941752 -0.336309 0.000000
vn -0.941752 -0.336309 0.000000
vn 0.941751 -0.336312 0.000000
vn 0.941751 -0.336312 0.000000
vn 0.941751 -0.336312 0.000000
vn 0.941751 -0.336312 0.000000
vn 0.817736 0.575593 0.000000
vn 0.789657 0.613548 0.000000
vn 0.790569 0.612373 0.000000
vn 0.819785 0.572672 0.000000
vn 0.773536 0.633753 0.000000
vn 0.773536 0.633753 0.000000
vn 0.805916 0.305925 0.506862
vn 0.805916 0.305925 0.506862
vn 0.805916 0.305925 0.506862
vn 0.805916 0.305925 0.506862
vn 0.998197 -0.060018 0.000000
vn 0.998197 -0.060018 0.000000
vn 0.998197 -0.060018 0.000000
vn 0.998197 -0.060018 0.000000
vn 0.805891 0.305916 -0.506908
vn 0.805891 0.305916 -0.506908
vn 0.805891 0.305916 -0.506908
vn 0.805891 0.305916 -0.506908
vn -0.818622 0.574333 0.000000
vn -0.790019 0.613082 0.000000
vn -0.788995 0.614400 0.000000
vn -0.816293 0.577639 0.000000
vn -0.773484 0.633816 0.000000
vn -0.773484 0.633816 0.000000
vn -0.805826 0.305892 -0.507025
vn -0.805826 0.305892 -0.507025
vn -0.805826 0.305892 -0.507025
vn -0.805826 0.305892 -0.507025
vn -0.998189 -0.060154 0.000000
vn -0.998189 -0.060154 0.000000
vn -0.998189 -0.060154 0.000000
vn -0.998189 -0.060154 0.000000
vn -0.805852 0.305901 0.506979
vn -0.805852 0.305901 0.506979
vn -0.805852 0.305901 0.506979
vn -0.805852 0.305901 0.506979
vn 0.336294 -0.941757 0.000000
vn 0.336294 -0.941757 0.000000
vn 0.336294 -0.941757 0.000000
vn 0.336294 -0.941757 0.000000
vn 0.336319 -0.941748 0.000000
vn 0.336319 -0.941748 0.000000
vn 0.336319 -0.941748 0.000000
vn 0.336319 -0.941748 0.000000
vn -0.024778 -0.008849 0.999654
vn -0.024778 -0.008849 0.999654
vn -0.024778 -0.008849 0.999654
vn -0.024778 -0.008849 0.999654
vn -0.941746 -0.336324 0.000000
vn -0.941746 -0.336324 0.000000
vn -0.941746 -0.336324 0.000000
vn -0.941746 -0.336324 0.000000
vn 0.000000 0.000000 -1.000000
vn 0.000000 0.000000 -1.000000
vn 0.941751 0.336312 0.000000
vn 0.941751 0.336312 0.000000
vn -0.941741 -0.336339 0.000000
vn -0.941741 -0.336339 0.000000
vn -0.941741 -0.336339 0.000000
vn -0.941741 -0.336339 0.000000
vn 0.035986 0.012853 -0.999270
vn 0.035986 0.012853 -0.999270
vn 0.035986 0.012853 -0.999270
vn 0.035986 0.012853 -0.999270
vn 0.941732 0.336363 0.000000
vn 0.941732 0.336363 0.000000
vn 0.000000 0.000000 1.000000
vn 0.000000 0.000000 1.000000
vn -0.336306 -0.941753 0.000000
vn -0.336306 -0.941753 0.000000
vn -0.336306 -0.941753 0.000000
vn -0.336306 -0.941753 0.000000
vn -0.336319 -0.941748 0.000000
vn -0.336319 -0.941748 0.000000
vn -0.336319 -0.941748 0.000000
vn -0.336319 -0.941748 0.000000
vn 0.002608 -0.000931 -0.999996
vn 0.002608 -0.000931 -0.999996
vn 0.002608 -0.000931 -0.999996
vn 0.002608 -0.000931 -0.999996
vn 0.941750 -0.336314 0.000000
vn 0.941750 -0.336314 0.000000
vn 0.941750 -0.336314 0.000000
vn 0.941750 -0.336314 0.000000
vn 0.000000 0.000000 1.000000
vn 0.000000 0.000000 1.000000
vn -0.941754 0.336303 0.000000
vn -0.941754 0.336303 0.000000
vn 0.941750 -0.336314 0.000002
vn 0.941750 -0.336314 0.000002
vn 0.941750 -0.336314 0.000002
vn 0.941750 -0.336314 0.000002
vn -0.013567 0.004845 0.999896
vn -0.013567 0.004845 0.999896
vn -0.013567 0.004845 0.999896
vn -0.013568 0.004845 0.999896
vn -0.941754 0.336303 0.000000
vn -0.941754 0.336303 0.000000
vn 0.000000 0.000000 -1.000000
vn 0.000000 0.000000 -1.000000
s off
g Sign_Board City_Decor
usemtl initialShadingGroup
f 9/11/1 10/12/2 11/13/3 12/14/4
f 18/21/5 17/22/6 19/23/7 20/24/8
f 21/25/9 22/26/10 23/27/11 24/28/12
s 1
f 3/3/13 4/4/14 10/12/15 9/11/16
s 2
f 6/6/17 5/5/18 12/14/19 11/13/20
s off
f 29/33/21 30/34/22 31/35/23 32/36/24
s 2
f 8/7/25 6/8/17 11/17/20 13/16/26
s 1
f 4/4/14 2/2/27 14/15/28 10/12/15
s off
f 41/45/29 42/46/30 43/47/31 44/48/32
s 1
f 1/1/33 3/3/13 9/11/16 16/19/34
s 2
f 5/10/18 7/9/35 15/18/36 12/20/19
s off
f 2/2/37 4/4/38 6/8/39 8/7/40
f 3/3/41 1/1/42 7/9/43 5/10/44
s 3
f 14/15/45 25/29/46 27/31/47 13/16/48 17/22/49 18/21/50
s off
f 13/16/51 11/17/52 19/23/53 17/22/54
f 11/17/55 10/12/56 20/24/57 19/23/58
f 10/12/59 14/15/60 18/21/61 20/24/62
s 4
f 15/18/63 39/43/64 37/41/65 16/19/66 22/26/67 21/25/68
s off
f 16/19/69 9/11/70 23/27/71 22/26/72
f 9/11/73 12/20/74 24/28/75 23/27/76
f 12/20/77 15/18/78 21/25/79 24/28/80
f 34/37/81 33/38/82 35/39/83 36/40/84
f 25/29/85 26/30/86 28/32/87 27/31/88
f 27/31/89 28/32/90 30/34/91 29/33/92
f 28/32/93 8/7/94 31/35/95 30/34/96
s 2
f 8/7/25 13/16/26 32/36/97 31/35/98
s 3
f 13/16/48 27/31/47 29/33/99 32/36/100
s off
f 2/2/101 26/30/102 33/38/103 34/37/104
f 26/30/105 25/29/106 35/39/107 33/38/108
s 3
f 25/29/46 14/15/45 36/40/109 35/39/110
s 1
f 14/15/28 2/2/27 34/37/111 36/40/112
s off
f 39/43/113 40/44/114 38/42/115 37/41/116
f 45/49/117 46/50/118 47/51/119 48/52/120
f 37/41/121 38/42/122 42/46/123 41/45/124
f 38/42/125 1/1/126 43/47/127 42/46/128
s 1
f 1/1/33 16/19/34 44/48/129 43/47/130
s 4
f 16/19/66 37/41/65 41/45/131 44/48/132
s off
f 7/9/133 40/44/134 46/50/135 45/49/136
f 40/44/137 39/43/138 47/51/139 46/50/140
s 4
f 39/43/64 15/18/63 48/52/141 47/51/142
s 2
f 15/18/36 7/9/35 45/49/143 48/52/144
