{
  "accessors": [
    {
      "bufferView": 2,
      "componentType": 5126,
      "count": 9976,
      "max": [
        148.85171508789063,
        395.25640869140625,
        111.25006866455078
      ],
      "min": [
        -148.8517303466797,
        -0.131500244140625,
        -98.37149810791016
      ],
      "type": "VEC3"
    },
    {
      "bufferView": 2,
      "byteOffset": 119712,
      "componentType": 5126,
      "count": 9976,
      "max": [
        1.0,
        1.0,
        1.0
      ],
      "min": [
        -1.0,
        -1.0,
        -1.0
      ],
      "type": "VEC3"
    },
    {
      "bufferView": 3,
      "componentType": 5126,
      "count": 9976,
      "max": [
        0.9999986886978149,
        0.9999182224273682,
        0.9999894499778748,
        1.0
      ],
      "min": [
        -0.9997174143791199,
        -0.9999621510505676,
        -0.9999973177909851,
        1.0
      ],
      "type": "VEC4"
    },
    {
      "bufferView": 1,
      "componentType": 5126,
      "count": 9976,
      "max": [
        0.9973679780960083,
        0.9976077675819397
      ],
      "min": [
        0.0038013458251953125,
        0.011083364486694336
      ],
      "type": "VEC2"
    },
    {
      "bufferView": 0,
      "componentType": 5125,
      "count": 49686,
      "type": "SCALAR"
    }
  ],
  "asset": {
    "extras": {
      "author": "naleina (https://sketchfab.com/naleina)",
      "license": "CC-BY-4.0 (http://creativecommons.org/licenses/by/4.0/)",
      "source": "https://sketchfab.com/3d-models/cartoony-garden-gnome-56565e1397994a3e92d03664e4b3bc71",
      "title": "Cartoony Garden Gnome"
    },
    "generator": "Sketchfab-15.19.0",
    "version": "2.0"
  },
  "bufferViews": [
    {
      "buffer": 0,
      "byteLength": 198744,
      "name": "floatBufferViews",
      "target": 34963
    },
    {
      "buffer": 0,
      "byteLength": 79808,
      "byteOffset": 198744,
      "byteStride": 8,
      "name": "floatBufferViews",
      "target": 34962
    },
    {
      "buffer": 0,
      "byteLength": 239424,
      "byteOffset": 278552,
      "byteStride": 12,
      "name": "floatBufferViews",
      "target": 34962
    },
    {
      "buffer": 0,
      "byteLength": 159616,
      "byteOffset": 517976,
      "byteStride": 16,
      "name": "floatBufferViews",
      "target": 34962
    }
  ],
  "buffers": [
    {
      "byteLength": 677592,
      "uri": "scene.bin"
    }
  ],
  "images": [
    {
      "uri": "textures/GnomeTexture_baseColor.png"
    },
    {
      "uri": "textures/GnomeTexture_metallicRoughness.png"
    },
    {
      "uri": "textures/GnomeTexture_normal.png"
    }
  ],
  "materials": [
    {
      "doubleSided": true,
      "name": "GnomeTexture",
      "normalTexture": {
        "index": 2
      },
      "pbrMetallicRoughness": {
        "baseColorTexture": {
          "index": 0
        },
        "metallicRoughnessTexture": {
          "index": 1
        }
      }
    }
  ],
  "meshes": [
    {
      "name": "Gnome_GnomeTexture_0",
      "primitives": [
        {
          "attributes": {
            "NORMAL": 1,
            "POSITION": 0,
            "TANGENT": 2,
            "TEXCOORD_0": 3
          },
          "indices": 4,
          "material": 0,
          "mode": 4
        }
      ]
    }
  ],
  "nodes": [
    {
      "children": [
        1
      ],
      "matrix": [
        1.0,
        0.0,
        0.0,
        0.0,
        0.0,
        2.220446049250313e-16,
        -1.0,
        0.0,
        0.0,
        1.0,
        2.220446049250313e-16,
        0.0,
        0.0,
        0.0,
        0.0,
        1.0
      ],
      "name": "Sketchfab_model"
    },
    {
      "children": [
        2
      ],
      "matrix": [
        1.0,
        0.0,
        0.0,
        0.0,
        0.0,
        0.0,
        1.0,
        0.0,
        0.0,
        -1.0,
        0.0,
        0.0,
        0.0,
        0.0,
        0.0,
        1.0
      ],
      "name": "c152e5c03c2a41e2b418a393e31a9d07.fbx"
    },
    {
      "children": [
        3
      ],
      "name": "RootNode"
    },
    {
      "children": [
        4
      ],
      "matrix": [
        0.009999999776482582,
        0.0,
        0.0,
        0.0,
        0.0,
        0.009999999776482582,
        0.0,
        0.0,
        0.0,
        0.0,
        0.009999999776482582,
        0.0,
        0.0,
        0.0,
        0.0,
        1.0
      ],
      "name": "Gnome"
    },
    {
      "mesh": 0,
      "name": "Gnome_GnomeTexture_0"
    }
  ],
  "samplers": [
    {
      "magFilter": 9729,
      "minFilter": 9987,
      "wrapS": 10497,
      "wrapT": 10497
    }
  ],
  "scene": 0,
  "scenes": [
    {
      "name": "Sketchfab_Scene",
      "nodes": [
        0
      ]
    }
  ],
  "textures": [
    {
      "sampler": 0,
      "source": 0
    },
    {
      "sampler": 0,
      "source": 1
    },
    {
      "sampler": 0,
      "source": 2
    }
  ]
}
