{
    "asset": {
        "version": "2.0",
        "generator": "Open Asset Import Library (assimp v5.4.0)"
    },
    "extensionsUsed": [
        "KHR_materials_volume",
        "FB_ngon_encoding"
    ],
    "accessors": [
        {
            "bufferView": 0,
            "byteOffset": 0,
            "componentType": 5126,
            "count": 3009,
            "type": "VEC3",
            "max": [
                0.839596152305603,
                1.2152985334396362,
                3.398649215698242
            ],
            "min": [
                -0.8407642841339111,
                -0.00230453466065228,
                -3.4307799339294434
            ]
        },
        {
            "bufferView": 1,
            "byteOffset": 0,
            "componentType": 5126,
            "count": 3009,
            "type": "VEC3",
            "max": [
                1.0,
                1.0,
                1.0
            ],
            "min": [
                -1.0,
                -1.0,
                -1.0
            ]
        },
        {
            "bufferView": 2,
            "byteOffset": 0,
            "componentType": 5126,
            "count": 3009,
            "type": "VEC2",
            "max": [
                0.9951096773147583,
                0.9951115250587463
            ],
            "min": [
                0.004880737978965044,
                0.19538235664367676
            ]
        },
        {
            "bufferView": 3,
            "byteOffset": 0,
            "componentType": 5125,
            "count": 13392,
            "type": "SCALAR",
            "max": [
                3008
            ],
            "min": [
                0
            ]
        }
    ],
    "buffers": [
        {
            "byteLength": 149856,
            "uri": "0ca337b4-694c-4118-8e5b-24b8b7fe1abc.bin"
        }
    ],
    "bufferViews": [
        {
            "buffer": 0,
            "byteOffset": 0,
            "byteLength": 36108,
            "target": 34962
        },
        {
            "buffer": 0,
            "byteOffset": 36108,
            "byteLength": 36108,
            "target": 34962
        },
        {
            "buffer": 0,
            "byteOffset": 72216,
            "byteLength": 24072,
            "target": 34962
        },
        {
            "buffer": 0,
            "byteOffset": 96288,
            "byteLength": 53568,
            "target": 34963
        }
    ],
    "materials": [
        {
            "name": "DefaultMaterial",
            "pbrMetallicRoughness": {
                "baseColorFactor": [
                    0.800000011920929,
                    0.800000011920929,
                    0.800000011920929,
                    1.0
                ],
                "metallicFactor": 0.0
            }
        }
    ],
    "meshes": [
        {
            "name": "wooden_boat_01",
            "primitives": [
                {
                    "extensions": {
                        "FB_ngon_encoding": {}
                    },
                    "mode": 4,
                    "material": 0,
                    "indices": 3,
                    "attributes": {
                        "POSITION": 0,
                        "NORMAL": 1,
                        "TEXCOORD_0": 2
                    }
                }
            ]
        }
    ],
    "nodes": [
        {
            "name": "RootNode",
            "children": [
                1
            ]
        },
        {
            "name": "wooden_boat_01",
            "mesh": 0,
            "extras": {
                "UserProperties": "",
                "IsNull": false,
                "DefaultAttributeIndex": 0,
                "InheritType": 1
            }
        }
    ],
    "scenes": [
        {
            "nodes": [
                0
            ]
        }
    ],
    "scene": 0
}