{"accessors" : [{"bufferView" : 0, "byteOffset" : 0, "componentType" : 5123, "count" : 6588, "type" : "SCALAR", "max" : [4463], "min" : [0]}, {"bufferView" : 1, "byteOffset" : 0, "componentType" : 5126, "count" : 4464, "type" : "VEC3", "max" : [84.01847076416016, 121.53903198242188, 339.96636962890625], "min" : [-84.13528442382812, -0.2304343730211258, -343.1689453125], "name" : "POSITION"}, {"bufferView" : 1, "byteOffset" : 12, "componentType" : 5126, "count" : 4464, "type" : "VEC3", "max" : [1.0000044107437134, 1.0000044107437134, 1.0000044107437134], "min" : [-1.0000044107437134, -1.0000044107437134, -1.0000044107437134], "name" : "NORMAL"}, {"bufferView" : 1, "byteOffset" : 24, "componentType" : 5126, "count" : 4464, "type" : "VEC2", "max" : [0.9951096177101135, 0.9951115250587463], "min" : [0.0048792012967169285, 0.19528311491012573], "name" : "TEXCOORD_0"}], "asset" : {"generator" : "Aspose.3D 25.11.0", "version" : "2.0"}, "buffers" : [{"uri" : "data:application/octet-stream;base64,", "byteLength" : 156032}], "bufferViews" : [{"buffer" : 0, "byteOffset" : 0, "byteLength" : 13176, "target" : 34963}, {"buffer" : 0, "byteOffset" : 13180, "byteLength" : 142848, "byteStride" : 32, "target" : 34962}], "meshes" : [{"primitives" : [{"attributes" : {"POSITION" : 1, "NORMAL" : 2, "TEXCOORD_0" : 3}, "indices" : 0, "mode" : 4}], "name" : "wooden_boat_01"}], "nodes" : [{"mesh" : 0, "name" : "wooden_boat_01"}], "scene" : 0, "scenes" : [{"nodes" : [0]}]}