{
  "accessors": [
    {
      "bufferView": 2,
      "componentType": 5126,
      "count": 2858,
      "max": [
        0.9590604305267334,
        0.7556411027908325,
        0.9403527975082397
      ],
      "min": [
        -0.9591973423957825,
        -0.7351259589195251,
        -0.9369839429855347
      ],
      "type": "VEC3"
    },
    {
      "bufferView": 2,
      "byteOffset": 34296,
      "componentType": 5126,
      "count": 2858,
      "max": [
        0.9946218729019165,
        0.9997842907905579,
        0.9868814945220947
      ],
      "min": [
        -0.994243323802948,
        -0.9995706677436829,
        -0.9939740896224976
      ],
      "type": "VEC3"
    },
    {
      "bufferView": 3,
      "componentType": 5126,
      "count": 2858,
      "max": [
        0.9996155500411987,
        0.99814373254776,
        0.9999777674674988,
        1.0
      ],
      "min": [
        -0.9999911785125732,
        -0.9960009455680847,
        -0.9998282194137573,
        -1.0
      ],
      "type": "VEC4"
    },
    {
      "bufferView": 1,
      "componentType": 5126,
      "count": 2858,
      "max": [
        0.9992611408233643,
        0.999261200428009
      ],
      "min": [
        0.0007388151716440916,
        0.018655061721801758
      ],
      "type": "VEC2"
    },
    {
      "bufferView": 1,
      "byteOffset": 22864,
      "componentType": 5126,
      "count": 2858,
      "max": [
        0.9992611408233643,
        0.999261200428009
      ],
      "min": [
        0.0007388151716440916,
        0.018655061721801758
      ],
      "type": "VEC2"
    },
    {
      "bufferView": 1,
      "byteOffset": 45728,
      "componentType": 5126,
      "count": 2858,
      "max": [
        0.9992611408233643,
        0.999261200428009
      ],
      "min": [
        0.0007388151716440916,
        0.018655061721801758
      ],
      "type": "VEC2"
    },
    {
      "bufferView": 1,
      "byteOffset": 68592,
      "componentType": 5126,
      "count": 2858,
      "max": [
        0.9992611408233643,
        0.999261200428009
      ],
      "min": [
        0.0007388151716440916,
        0.018655061721801758
      ],
      "type": "VEC2"
    },
    {
      "bufferView": 0,
      "componentType": 5125,
      "count": 9000,
      "type": "SCALAR"
    }
  ],
  "asset": {
    "extras": {
      "author": "vladlenfilimonov (https://sketchfab.com/vladlenfilimonov)",
      "license": "SKETCHFAB Standard (https://sketchfab.com/licenses)",
      "source": "https://sketchfab.com/3d-models/chanterelle-mushroom-a5626630cd814d55b5dc2bc7cdf9ad0f",
      "title": "Chanterelle Mushroom"
    },
    "generator": "Sketchfab-16.87.0",
    "version": "2.0"
  },
  "bufferViews": [
    {
      "buffer": 0,
      "byteLength": 36000,
      "name": "floatBufferViews",
      "target": 34963
    },
    {
      "buffer": 0,
      "byteLength": 91456,
      "byteOffset": 36000,
      "byteStride": 8,
      "name": "floatBufferViews",
      "target": 34962
    },
    {
      "buffer": 0,
      "byteLength": 68592,
      "byteOffset": 127456,
      "byteStride": 12,
      "name": "floatBufferViews",
      "target": 34962
    },
    {
      "buffer": 0,
      "byteLength": 45728,
      "byteOffset": 196048,
      "byteStride": 16,
      "name": "floatBufferViews",
      "target": 34962
    }
  ],
  "buffers": [
    {
      "byteLength": 241776,
      "uri": "scene.bin"
    }
  ],
  "images": [
    {
      "uri": "textures/Material_0.001_baseColor.jpeg"
    },
    {
      "uri": "textures/Material_0.001_metallicRoughness.png"
    },
    {
      "uri": "textures/Material_0.001_normal.jpeg"
    }
  ],
  "materials": [
    {
      "doubleSided": true,
      "name": "Material_0.001",
      "normalTexture": {
        "index": 2
      },
      "pbrMetallicRoughness": {
        "baseColorTexture": {
          "index": 0
        },
        "metallicRoughnessTexture": {
          "index": 1
        }
      }
    }
  ],
  "meshes": [
    {
      "name": "Object_0",
      "primitives": [
        {
          "attributes": {
            "NORMAL": 1,
            "POSITION": 0,
            "TANGENT": 2,
            "TEXCOORD_0": 3,
            "TEXCOORD_1": 4,
            "TEXCOORD_2": 5,
            "TEXCOORD_3": 6
          },
          "indices": 7,
          "material": 0,
          "mode": 4
        }
      ]
    }
  ],
  "nodes": [
    {
      "children": [
        1
      ],
      "matrix": [
        1.0,
        0.0,
        0.0,
        0.0,
        0.0,
        2.220446049250313e-16,
        -1.0,
        0.0,
        0.0,
        1.0,
        2.220446049250313e-16,
        0.0,
        0.0,
        0.0,
        0.0,
        1.0
      ],
      "name": "Sketchfab_model"
    },
    {
      "children": [
        2
      ],
      "name": "root"
    },
    {
      "children": [
        3
      ],
      "matrix": [
        1.0,
        0.0,
        0.0,
        0.0,
        0.0,
        2.220446049250313e-16,
        1.0,
        0.0,
        0.0,
        -1.0,
        2.220446049250313e-16,
        0.0,
        0.0,
        0.0,
        0.0,
        1.0
      ],
      "name": "GLTF_SceneRootNode"
    },
    {
      "children": [
        4
      ],
      "name": "Mesh1.0_0"
    },
    {
      "mesh": 0,
      "name": "Object_4"
    }
  ],
  "samplers": [
    {
      "magFilter": 9729,
      "minFilter": 9987,
      "wrapS": 10497,
      "wrapT": 10497
    }
  ],
  "scene": 0,
  "scenes": [
    {
      "name": "Sketchfab_Scene",
      "nodes": [
        0
      ]
    }
  ],
  "textures": [
    {
      "sampler": 0,
      "source": 0
    },
    {
      "sampler": 0,
      "source": 1
    },
    {
      "sampler": 0,
      "source": 2
    }
  ]
}
