{
  "accessors": [
    {
      "bufferView": 2,
      "componentType": 5126,
      "count": 256,
      "max": [
        0.31733599305152893,
        0.47673898935317993,
        -0.0806410014629364
      ],
      "min": [
        -0.31733599305152893,
        -0.058437999337911606,
        -0.5076500177383423
      ],
      "type": "VEC3"
    },
    {
      "bufferView": 2,
      "byteOffset": 3072,
      "componentType": 5126,
      "count": 256,
      "max": [
        0.9340780973434448,
        0.9938551783561707,
        0.9377336502075195
      ],
      "min": [
        -0.9340780973434448,
        -0.9991333484649658,
        -0.9962129592895508
      ],
      "type": "VEC3"
    },
    {
      "bufferView": 3,
      "componentType": 5126,
      "count": 256,
      "max": [
        0.9885358214378357,
        0.9962129592895508,
        0.9991333484649658,
        1.0
      ],
      "min": [
        -0.9885358810424805,
        -0.9004924893379211,
        -0.9938551783561707,
        -1.0
      ],
      "type": "VEC4"
    },
    {
      "bufferView": 1,
      "componentType": 5126,
      "count": 256,
      "max": [
        0.298248827457428,
        0.12648066878318787
      ],
      "min": [
        0.02132176049053669,
        0.02299729734659195
      ],
      "type": "VEC2"
    },
    {
      "bufferView": 0,
      "componentType": 5125,
      "count": 1152,
      "type": "SCALAR"
    },
    {
      "bufferView": 2,
      "byteOffset": 6144,
      "componentType": 5126,
      "count": 2145,
      "max": [
        0.4604490101337433,
        1.4105160236358643,
        0.3757419288158417
      ],
      "min": [
        -0.4604490101337433,
        -0.3642579913139343,
        -1.0053009986877441
      ],
      "type": "VEC3"
    },
    {
      "bufferView": 2,
      "byteOffset": 31884,
      "componentType": 5126,
      "count": 2145,
      "max": [
        0.9990183115005493,
        0.9998841285705566,
        0.9998112916946411
      ],
      "min": [
        -0.9990183115005493,
        -0.9996188282966614,
        -0.9989636540412903
      ],
      "type": "VEC3"
    },
    {
      "bufferView": 3,
      "byteOffset": 4096,
      "componentType": 5126,
      "count": 2145,
      "max": [
        1.0,
        0.9995715618133545,
        0.9983739852905273,
        1.0
      ],
      "min": [
        -1.0,
        -0.9995613694190979,
        -0.9728432893753052,
        1.0
      ],
      "type": "VEC4"
    },
    {
      "bufferView": 1,
      "byteOffset": 2048,
      "componentType": 5126,
      "count": 2145,
      "max": [
        0.9876394867897034,
        0.9882075786590576
      ],
      "min": [
        0.011742204427719116,
        0.01016166154295206
      ],
      "type": "VEC2"
    },
    {
      "bufferView": 0,
      "byteOffset": 4608,
      "componentType": 5125,
      "count": 11124,
      "type": "SCALAR"
    },
    {
      "bufferView": 2,
      "byteOffset": 57624,
      "componentType": 5126,
      "count": 130,
      "max": [
        0.1959719955921173,
        -0.12931400537490845,
        0.05310700088739395
      ],
      "min": [
        -0.1959719955921173,
        -0.20747999846935272,
        -0.10322500020265579
      ],
      "type": "VEC3"
    },
    {
      "bufferView": 2,
      "byteOffset": 59184,
      "componentType": 5126,
      "count": 130,
      "max": [
        0.9807859063148499,
        -0.1950799822807312,
        0.9807859063148499
      ],
      "min": [
        -0.9807859063148499,
        -1.0,
        -0.9807860255241394
      ],
      "type": "VEC3"
    },
    {
      "bufferView": 3,
      "byteOffset": 38416,
      "componentType": 5126,
      "count": 130,
      "max": [
        0.8683591485023499,
        0.9764420986175537,
        -0.021649617701768875,
        1.0
      ],
      "min": [
        -0.8683591485023499,
        -0.977016806602478,
        -0.6748190522193909,
        -1.0
      ],
      "type": "VEC4"
    },
    {
      "bufferView": 1,
      "byteOffset": 19208,
      "componentType": 5126,
      "count": 130,
      "max": [
        0.4016946256160736,
        0.2193942368030548
      ],
      "min": [
        0.32003873586654663,
        0.13798478245735168
      ],
      "type": "VEC2"
    },
    {
      "bufferView": 0,
      "byteOffset": 49104,
      "componentType": 5125,
      "count": 672,
      "type": "SCALAR"
    }
  ],
  "asset": {
    "extras": {
      "author": "Dominik Zimmer (https://sketchfab.com/dominikzimmer)",
      "license": "CC-BY-4.0 (http://creativecommons.org/licenses/by/4.0/)",
      "source": "https://sketchfab.com/3d-models/hedgedog-fe704a6c80614219b7b0bc31dc2d4e51",
      "title": "Hedgedog"
    },
    "generator": "Sketchfab-12.67.0",
    "version": "2.0"
  },
  "bufferViews": [
    {
      "buffer": 0,
      "byteLength": 51792,
      "name": "floatBufferViews",
      "target": 34963
    },
    {
      "buffer": 0,
      "byteLength": 20248,
      "byteOffset": 51792,
      "byteStride": 8,
      "name": "floatBufferViews",
      "target": 34962
    },
    {
      "buffer": 0,
      "byteLength": 60744,
      "byteOffset": 72040,
      "byteStride": 12,
      "name": "floatBufferViews",
      "target": 34962
    },
    {
      "buffer": 0,
      "byteLength": 40496,
      "byteOffset": 132784,
      "byteStride": 16,
      "name": "floatBufferViews",
      "target": 34962
    }
  ],
  "buffers": [
    {
      "byteLength": 173280,
      "uri": "scene.bin"
    }
  ],
  "images": [
    {
      "uri": "textures/default_baseColor.png"
    },
    {
      "uri": "textures/default_metallicRoughness.png"
    },
    {
      "uri": "textures/default_normal.png"
    }
  ],
  "materials": [
    {
      "doubleSided": true,
      "name": "default",
      "normalTexture": {
        "index": 2
      },
      "occlusionTexture": {
        "index": 1
      },
      "pbrMetallicRoughness": {
        "baseColorTexture": {
          "index": 0
        },
        "metallicRoughnessTexture": {
          "index": 1
        }
      }
    }
  ],
  "meshes": [
    {
      "name": "Object_0",
      "primitives": [
        {
          "attributes": {
            "NORMAL": 1,
            "POSITION": 0,
            "TANGENT": 2,
            "TEXCOORD_0": 3
          },
          "indices": 4,
          "material": 0,
          "mode": 4
        }
      ]
    },
    {
      "name": "Object_1",
      "primitives": [
        {
          "attributes": {
            "NORMAL": 6,
            "POSITION": 5,
            "TANGENT": 7,
            "TEXCOORD_0": 8
          },
          "indices": 9,
          "material": 0,
          "mode": 4
        }
      ]
    },
    {
      "name": "Object_2",
      "primitives": [
        {
          "attributes": {
            "NORMAL": 11,
            "POSITION": 10,
            "TANGENT": 12,
            "TEXCOORD_0": 13
          },
          "indices": 14,
          "material": 0,
          "mode": 4
        }
      ]
    }
  ],
  "nodes": [
    {
      "children": [
        1
      ],
      "matrix": [
        1.0,
        0.0,
        0.0,
        0.0,
        0.0,
        2.220446049250313e-16,
        -1.0,
        0.0,
        0.0,
        1.0,
        2.220446049250313e-16,
        0.0,
        0.0,
        0.0,
        0.0,
        1.0
      ],
      "name": "Sketchfab_model"
    },
    {
      "children": [
        2
      ],
      "name": "root"
    },
    {
      "children": [
        3
      ],
      "matrix": [
        1.0,
        0.0,
        0.0,
        0.0,
        0.0,
        2.220446049250313e-16,
        1.0,
        0.0,
        0.0,
        -1.0,
        2.220446049250313e-16,
        0.0,
        0.0,
        0.0,
        0.0,
        1.0
      ],
      "name": "GLTF_SceneRootNode"
    },
    {
      "children": [
        4
      ],
      "matrix": [
        1.0,
        0.0,
        -0.0,
        0.0,
        -0.0,
        0.0,
        -1.0,
        0.0,
        0.0,
        1.0,
        0.0,
        0.0,
        0.0,
        0.0,
        0.0,
        1.0
      ],
      "name": "RootNode (gltf orientation matrix)_0"
    },
    {
      "children": [
        5
      ],
      "name": "RootNode (model correction matrix)_1"
    },
    {
      "children": [
        6
      ],
      "matrix": [
        1.0,
        0.0,
        0.0,
        0.0,
        0.0,
        0.0,
        1.0,
        0.0,
        0.0,
        -1.0,
        0.0,
        0.0,
        0.0,
        0.0,
        0.0,
        1.0
      ],
      "name": "1.FBX_2"
    },
    {
      "children": [
        7,
        10,
        13
      ],
      "name": "RootNode_3"
    },
    {
      "children": [
        8
      ],
      "matrix": [
        1.0,
        0.0,
        0.0,
        0.0,
        0.0,
        2.220446049250313e-16,
        -1.0,
        0.0,
        0.0,
        1.0,
        2.220446049250313e-16,
        0.0,
        0.0,
        0.0,
        0.0,
        1.0
      ],
      "name": "Group18985_4"
    },
    {
      "children": [
        9
      ],
      "name": "Group18985_default_0_5"
    },
    {
      "mesh": 0,
      "name": "Object_9"
    },
    {
      "children": [
        11
      ],
      "matrix": [
        1.0,
        0.0,
        0.0,
        0.0,
        0.0,
        2.220446049250313e-16,
        -1.0,
        0.0,
        0.0,
        1.0,
        2.220446049250313e-16,
        0.0,
        0.0,
        0.0,
        0.0,
        1.0
      ],
      "name": "Box002_6"
    },
    {
      "children": [
        12
      ],
      "name": "Box002_default_0_7"
    },
    {
      "mesh": 1,
      "name": "Object_12"
    },
    {
      "children": [
        14
      ],
      "matrix": [
        1.0,
        0.0,
        0.0,
        0.0,
        0.0,
        2.220446049250313e-16,
        -1.0,
        0.0,
        0.0,
        1.0,
        2.220446049250313e-16,
        0.0,
        0.0,
        0.0,
        0.0,
        1.0
      ],
      "name": "Object001_8"
    },
    {
      "children": [
        15
      ],
      "name": "Object001_default_0_9"
    },
    {
      "mesh": 2,
      "name": "Object_15"
    }
  ],
  "samplers": [
    {
      "magFilter": 9729,
      "minFilter": 9987,
      "wrapS": 10497,
      "wrapT": 10497
    }
  ],
  "scene": 0,
  "scenes": [
    {
      "name": "Sketchfab_Scene",
      "nodes": [
        0
      ]
    }
  ],
  "textures": [
    {
      "sampler": 0,
      "source": 0
    },
    {
      "sampler": 0,
      "source": 1
    },
    {
      "sampler": 0,
      "source": 2
    }
  ]
}
